<?xml version="1.0" encoding="utf-8"?>
<!-- Generator: Adobe Illustrator 27.0.0, SVG Export Plug-In . SVG Version: 6.00 Build 0)  -->
<svg version="1.1" id="Layer_1" xmlns="http://www.w3.org/2000/svg" xmlns:xlink="http://www.w3.org/1999/xlink" x="0px" y="0px"
	 viewBox="0 0 181.8 178" style="enable-background:new 0 0 181.8 178;" xml:space="preserve">
<style type="text/css">
	.st0{fill:#2F5565;}
	.st1{fill:none;stroke:#FFFFFF;stroke-width:4;}
	.st2{fill:#C1CC53;}
	.st3{fill:#59C8F3;}
	.st4{fill:#868D38;}
	.st5{fill:#62682D;}
	.st6{fill:#FFFFFF;}
	.st7{fill:none;stroke:#194A9C;stroke-width:3.5568;}
	.st8{fill:none;stroke:#FFFFFF;stroke-width:3.5568;}
</style>
<g>
	<path class="st0" d="M23.7,11.5c-6.6,0-12,5.4-12,12v133c0,6.6,5.4,12,12,12h133c6.6,0,12-5.4,12-12v-133c0-6.6-5.4-12-12-12H23.7
		L23.7,11.5z"/>
	<path class="st1" d="M23.7,11.5c-6.6,0-12,5.4-12,12v133c0,6.6,5.4,12,12,12h133c6.6,0,12-5.4,12-12v-133c0-6.6-5.4-12-12-12H23.7
		L23.7,11.5z"/>
	<path class="st2" d="M70.8,95.1l45.7-44.6l13.3,11.8c0,0-1.1,14.4-7.8,22.4s-16.2,14-23.9,14.8c-7.6,0.7-15.1,1.4-19.4,0
		C74.3,98,70.8,95.1,70.8,95.1L70.8,95.1z"/>
	<path class="st3" d="M50.6,63.8c0-0.7-0.4-13.1,2.9-19.1c3.2-6,15.5-17.1,19.8-19.4c4.3-2.3,13.7-3.6,17-3.6
		c3.2,0,18.1,3.2,21.5,5.4s10.9,9,12.7,13.3c1.8,4.3,5.4,13.2,5.4,16.8c0,3.6,0,8.1,0,6.6c0-1.5-13-13.3-13-13.3l-5.2,4.3l-20-20.2
		L71.5,56l-5.8-5.5L50.6,63.8L50.6,63.8z"/>
	<path class="st4" d="M49.5,64.1l16.2-13.6l24.8,24.9L70.8,94.9c0,0-10.8-7.5-13.3-11.9C54.9,78.6,49.5,64.1,49.5,64.1L49.5,64.1z"
		/>
	<path class="st5" d="M70.8,56c0-1.2,20.9-21,20.9-21l20,21L90.5,75.4L70.8,56L70.8,56z"/>
	<g>
		<g>
			<path class="st6" d="M43.4,137.8c-1.7,0-3.3-0.3-4.8-0.9c-1.5-0.6-2.7-1.7-3.5-3.1c-0.9-1.4-1.3-3.3-1.3-5.6v-11.6
				c0-2.4,0.4-4.2,1.3-5.6c0.9-1.4,2.1-2.4,3.5-3.1c1.5-0.6,3.1-0.9,4.9-0.9c2,0,3.7,0.3,5.2,1s2.7,1.6,3.5,2.8
				c0.9,1.2,1.3,2.6,1.3,4.2c0,1.1-0.2,1.8-0.7,2.2c-0.4,0.4-1.1,0.5-2.1,0.5c-0.8,0-1.4-0.1-1.9-0.4c-0.5-0.3-0.8-0.7-0.8-1.3
				c0-0.3,0-0.7-0.1-1.2c-0.1-0.5-0.3-0.9-0.6-1.4c-0.3-0.4-0.7-0.8-1.3-1.1c-0.6-0.3-1.4-0.5-2.4-0.5c-1.4,0-2.5,0.4-3.3,1.2
				c-0.8,0.8-1.1,2-1.1,3.7v11.6c0,1.7,0.4,2.9,1.2,3.7c0.8,0.8,1.9,1.2,3.3,1.2c1,0,1.7-0.2,2.3-0.5c0.6-0.3,1-0.7,1.2-1.2
				c0.3-0.5,0.4-0.9,0.5-1.4c0.1-0.5,0.2-1,0.2-1.4c0.1-0.7,0.3-1.1,0.8-1.4c0.5-0.2,1.1-0.4,1.8-0.4c1,0,1.7,0.2,2.1,0.5
				c0.4,0.4,0.7,1.1,0.7,2.1c0,1.7-0.4,3.2-1.3,4.4c-0.9,1.3-2,2.2-3.5,2.9C47.1,137.4,45.4,137.8,43.4,137.8z"/>
			<path class="st6" d="M67.1,137.8c-1.9,0-3.6-0.3-5.1-0.9c-1.5-0.6-2.7-1.7-3.6-3.1c-0.9-1.4-1.3-3.3-1.3-5.6v-19.6
				c0-0.6,0.3-1.1,0.8-1.3c0.6-0.3,1.2-0.4,1.9-0.4c0.7,0,1.3,0.1,1.9,0.4c0.6,0.3,0.9,0.7,0.9,1.3v19.6c0,1.7,0.4,2.9,1.2,3.7
				c0.8,0.8,1.9,1.2,3.4,1.2c1.5,0,2.6-0.4,3.4-1.2c0.8-0.8,1.2-2,1.2-3.7v-19.6c0-0.6,0.3-1.1,0.8-1.3c0.6-0.3,1.2-0.4,1.9-0.4
				c0.7,0,1.3,0.1,1.9,0.4c0.6,0.3,0.9,0.7,0.9,1.3v19.6c0,2.4-0.4,4.2-1.3,5.6s-2.1,2.4-3.6,3.1C70.7,137.5,69,137.8,67.1,137.8z"
				/>
			<path class="st6" d="M91.7,137.8c-1.8,0-3.5-0.3-5-0.9c-1.5-0.6-2.7-1.7-3.5-3.1s-1.3-3.3-1.3-5.6v-11.6c0-2.4,0.4-4.2,1.3-5.6
				c0.9-1.4,2.1-2.4,3.5-3.1c1.5-0.6,3.1-0.9,4.9-0.9c2,0,3.7,0.3,5.2,1c1.5,0.6,2.7,1.6,3.5,2.8s1.3,2.6,1.3,4.3
				c0,1-0.2,1.7-0.7,2.1c-0.4,0.4-1.1,0.5-2.1,0.5c-0.7,0-1.4-0.1-1.9-0.4c-0.5-0.3-0.8-0.7-0.8-1.3c0-0.7-0.2-1.3-0.4-2
				s-0.7-1.2-1.3-1.6c-0.6-0.4-1.5-0.6-2.8-0.6c-1.4,0-2.4,0.4-3.2,1.2c-0.8,0.8-1.2,2-1.2,3.7v11.6c0,1.7,0.4,2.9,1.2,3.7
				c0.8,0.8,1.8,1.2,3.2,1.2s2.5-0.4,3.2-1.2s1.2-2,1.2-3.7v-2.4h-3.4c-0.5,0-0.9-0.2-1.2-0.7c-0.3-0.4-0.4-0.9-0.4-1.5
				c0-0.5,0.1-1,0.4-1.5c0.3-0.4,0.7-0.7,1.2-0.7h7.1c0.6,0,1,0.2,1.3,0.5c0.3,0.4,0.4,0.8,0.4,1.3v4.9c0,2.4-0.4,4.2-1.3,5.6
				s-2.1,2.4-3.5,3.1S93.5,137.8,91.7,137.8z"/>
			<path class="st6" d="M115.4,137.8c-1.8,0-3.5-0.3-5-0.9s-2.7-1.7-3.5-3.1s-1.3-3.3-1.3-5.6v-11.6c0-2.4,0.4-4.2,1.3-5.6
				c0.9-1.4,2.1-2.4,3.5-3.1c1.5-0.6,3.2-0.9,5-0.9c1.8,0,3.5,0.3,5,0.9c1.5,0.6,2.7,1.7,3.5,3.1c0.9,1.4,1.3,3.3,1.3,5.6v11.6
				c0,2.4-0.4,4.2-1.3,5.6c-0.9,1.4-2.1,2.4-3.5,3.1C118.9,137.5,117.2,137.8,115.4,137.8z M115.4,133c1.4,0,2.5-0.4,3.2-1.2
				c0.8-0.8,1.2-2,1.2-3.7v-11.6c0-1.7-0.4-2.9-1.2-3.7c-0.8-0.8-1.9-1.2-3.2-1.2s-2.4,0.4-3.2,1.2c-0.8,0.8-1.2,2-1.2,3.7v11.6
				c0,1.7,0.4,2.9,1.2,3.7C112.9,132.6,114,133,115.4,133z"/>
			<path class="st6" d="M138.1,137.9c-1.8,0-3.5-0.3-4.9-0.8c-1.5-0.5-2.6-1.2-3.5-2c-0.9-0.8-1.3-1.6-1.3-2.4
				c0-0.4,0.1-0.8,0.3-1.3s0.5-0.9,0.9-1.2c0.4-0.3,0.8-0.5,1.2-0.5c0.4,0,0.9,0.2,1.3,0.5c0.4,0.3,0.8,0.7,1.3,1.1
				c0.5,0.4,1.1,0.8,1.8,1.1c0.7,0.3,1.6,0.5,2.7,0.5c0.8,0,1.6-0.1,2.3-0.4c0.7-0.3,1.3-0.7,1.7-1.2c0.4-0.5,0.7-1.2,0.7-2.1
				c0-0.9-0.2-1.7-0.7-2.3c-0.5-0.6-1.1-1.1-1.9-1.6c-0.8-0.4-1.7-0.9-2.6-1.3c-1-0.4-1.9-0.9-2.9-1.3c-1-0.5-1.8-1-2.6-1.7
				c-0.8-0.7-1.4-1.5-1.9-2.5c-0.5-1-0.7-2.2-0.7-3.6c0-1.6,0.3-2.9,0.9-3.9c0.6-1.1,1.4-1.9,2.4-2.6s2.1-1.1,3.3-1.4
				c1.2-0.3,2.4-0.4,3.6-0.4c0.6,0,1.4,0,2.3,0.1c0.9,0.1,1.8,0.3,2.6,0.5s1.6,0.6,2.2,1c0.6,0.4,0.9,1,0.9,1.7
				c0,0.3-0.1,0.7-0.2,1.1s-0.4,0.9-0.7,1.2c-0.3,0.4-0.7,0.5-1.2,0.5c-0.4,0-0.9-0.1-1.3-0.4c-0.4-0.3-1-0.5-1.7-0.8
				c-0.7-0.3-1.6-0.4-2.8-0.4c-1,0-1.8,0.1-2.6,0.4c-0.7,0.3-1.3,0.6-1.6,1.1c-0.4,0.5-0.5,1-0.5,1.7c0,0.7,0.2,1.3,0.7,1.8
				c0.5,0.5,1.1,1,1.9,1.3c0.8,0.4,1.7,0.8,2.6,1.2c1,0.4,1.9,0.8,2.9,1.4c1,0.5,1.9,1.1,2.7,1.9c0.8,0.7,1.5,1.6,1.9,2.7
				c0.5,1.1,0.7,2.4,0.7,4c0,2-0.4,3.7-1.3,5c-0.9,1.4-2.1,2.4-3.5,3.1C141.8,137.6,140.1,137.9,138.1,137.9z"/>
		</g>
	</g>
	<g>
		<g>
			<path class="st6" d="M24,149c-0.3,0-0.6-0.1-0.9-0.2c-0.3-0.1-0.5-0.3-0.7-0.6c-0.2-0.3-0.3-0.6-0.3-1.1v-2.2
				c0-0.4,0.1-0.8,0.3-1.1s0.4-0.5,0.7-0.6c0.3-0.1,0.6-0.2,0.9-0.2c0.4,0,0.7,0.1,1,0.2c0.3,0.1,0.5,0.3,0.7,0.5
				c0.2,0.2,0.2,0.5,0.2,0.8c0,0.2,0,0.3-0.1,0.4c-0.1,0.1-0.2,0.1-0.4,0.1c-0.1,0-0.3,0-0.4-0.1c-0.1,0-0.2-0.1-0.2-0.3
				c0-0.1,0-0.1,0-0.2s-0.1-0.2-0.1-0.3c-0.1-0.1-0.1-0.2-0.2-0.2c-0.1-0.1-0.3-0.1-0.5-0.1c-0.3,0-0.5,0.1-0.6,0.2
				c-0.1,0.2-0.2,0.4-0.2,0.7v2.2c0,0.3,0.1,0.6,0.2,0.7c0.1,0.1,0.4,0.2,0.6,0.2c0.2,0,0.3,0,0.4-0.1s0.2-0.1,0.2-0.2
				s0.1-0.2,0.1-0.3c0-0.1,0-0.2,0-0.3c0-0.1,0.1-0.2,0.2-0.3c0.1,0,0.2-0.1,0.4-0.1c0.2,0,0.3,0,0.4,0.1c0.1,0.1,0.1,0.2,0.1,0.4
				c0,0.3-0.1,0.6-0.2,0.8c-0.2,0.2-0.4,0.4-0.7,0.6S24.4,149,24,149z"/>
			<path class="st6" d="M27.4,149c-0.3,0-0.5-0.1-0.7-0.3c-0.2-0.2-0.3-0.4-0.3-0.8c0-0.3,0.1-0.5,0.2-0.7s0.4-0.3,0.7-0.4
				s0.6-0.1,1-0.1h0.3v-0.1c0-0.1,0-0.2-0.1-0.3c0-0.1-0.1-0.2-0.2-0.3c-0.1-0.1-0.2-0.1-0.4-0.1c-0.2,0-0.4,0-0.5,0.1
				s-0.2,0.1-0.3,0.1s-0.1,0.1-0.2,0.1c-0.1,0-0.2-0.1-0.3-0.2c-0.1-0.1-0.1-0.2-0.1-0.3c0-0.1,0.1-0.2,0.2-0.3
				c0.1-0.1,0.3-0.2,0.5-0.2s0.4-0.1,0.6-0.1c0.4,0,0.7,0.1,1,0.2c0.2,0.1,0.4,0.3,0.5,0.6c0.1,0.2,0.2,0.5,0.2,0.8v2
				c0,0.1,0,0.2-0.1,0.2c-0.1,0.1-0.2,0.1-0.4,0.1c-0.1,0-0.2,0-0.3-0.1c-0.1-0.1-0.1-0.1-0.1-0.2v-0.2c-0.1,0.2-0.3,0.3-0.5,0.4
				C27.9,148.9,27.6,149,27.4,149z M27.8,148.2c0.1,0,0.2,0,0.3-0.1c0.1-0.1,0.2-0.2,0.3-0.3c0.1-0.1,0.1-0.2,0.1-0.4v-0.2h-0.1
				c-0.2,0-0.3,0-0.5,0c-0.2,0-0.3,0.1-0.4,0.1c-0.1,0.1-0.1,0.2-0.1,0.3s0,0.3,0.1,0.3S27.7,148.2,27.8,148.2z"/>
			<path class="st6" d="M31.6,149c-0.3,0-0.5,0-0.7-0.1s-0.4-0.2-0.5-0.3c-0.1-0.1-0.2-0.2-0.2-0.3c0-0.1,0-0.1,0-0.2
				s0.1-0.1,0.1-0.2s0.1-0.1,0.2-0.1c0.1,0,0.2,0,0.2,0.1c0.1,0.1,0.2,0.1,0.3,0.2c0.1,0.1,0.3,0.1,0.5,0.1c0.2,0,0.4,0,0.5-0.1
				c0.1-0.1,0.1-0.2,0.1-0.2c0-0.1,0-0.2-0.1-0.3c-0.1-0.1-0.2-0.1-0.4-0.2c-0.1,0-0.3-0.1-0.5-0.1c-0.2,0-0.3-0.1-0.5-0.2
				c-0.1-0.1-0.3-0.2-0.4-0.3s-0.1-0.3-0.1-0.5c0-0.2,0-0.4,0.1-0.6c0.1-0.2,0.2-0.3,0.4-0.5s0.5-0.2,0.8-0.2c0.2,0,0.4,0,0.6,0.1
				c0.2,0,0.4,0.1,0.5,0.2c0.1,0.1,0.2,0.2,0.2,0.3c0,0,0,0.1,0,0.2c0,0.1-0.1,0.1-0.1,0.2c-0.1,0.1-0.1,0.1-0.2,0.1
				c-0.1,0-0.1,0-0.2-0.1c-0.1,0-0.2-0.1-0.3-0.1c-0.1,0-0.2-0.1-0.4-0.1c-0.1,0-0.2,0-0.3,0.1c-0.1,0-0.1,0.1-0.2,0.1
				c0,0.1-0.1,0.1-0.1,0.2c0,0.1,0,0.2,0.1,0.2c0.1,0.1,0.2,0.1,0.4,0.1c0.1,0,0.3,0.1,0.5,0.1c0.2,0,0.3,0.1,0.5,0.2
				c0.1,0.1,0.3,0.2,0.4,0.3c0.1,0.1,0.1,0.3,0.1,0.6c0,0.4-0.1,0.6-0.4,0.9C32.4,148.9,32,149,31.6,149z"/>
			<path class="st6" d="M35.3,149c-0.4,0-0.7-0.1-1-0.2c-0.3-0.1-0.4-0.3-0.6-0.6s-0.2-0.5-0.2-0.8v-0.6c0-0.3,0.1-0.6,0.2-0.8
				s0.3-0.4,0.6-0.6c0.3-0.1,0.6-0.2,1-0.2c0.3,0,0.5,0,0.7,0.1c0.2,0.1,0.3,0.1,0.5,0.2s0.2,0.2,0.2,0.3c0,0.1,0,0.1-0.1,0.2
				c0,0.1-0.1,0.1-0.1,0.2c-0.1,0.1-0.1,0.1-0.2,0.1c-0.1,0-0.1,0-0.2-0.1s-0.1-0.1-0.2-0.1c-0.1,0-0.2-0.1-0.4-0.1
				c-0.3,0-0.5,0.1-0.6,0.2c-0.1,0.1-0.2,0.3-0.2,0.5v0.6c0,0.2,0.1,0.4,0.2,0.5c0.1,0.1,0.3,0.2,0.6,0.2c0.2,0,0.3,0,0.4-0.1
				c0.1,0,0.2-0.1,0.2-0.1c0.1,0,0.1-0.1,0.2-0.1c0.1,0,0.2,0,0.2,0.1s0.1,0.1,0.2,0.2c0,0.1,0.1,0.1,0.1,0.2c0,0.1-0.1,0.2-0.2,0.3
				c-0.1,0.1-0.3,0.2-0.5,0.2C35.7,149,35.5,149,35.3,149z"/>
			<path class="st6" d="M37.9,149c-0.3,0-0.5-0.1-0.7-0.3c-0.2-0.2-0.3-0.4-0.3-0.8c0-0.3,0.1-0.5,0.2-0.7s0.4-0.3,0.7-0.4
				s0.6-0.1,1-0.1h0.3v-0.1c0-0.1,0-0.2-0.1-0.3c0-0.1-0.1-0.2-0.2-0.3c-0.1-0.1-0.2-0.1-0.4-0.1c-0.2,0-0.4,0-0.5,0.1
				s-0.2,0.1-0.3,0.1s-0.1,0.1-0.2,0.1c-0.1,0-0.2-0.1-0.3-0.2c-0.1-0.1-0.1-0.2-0.1-0.3c0-0.1,0.1-0.2,0.2-0.3
				c0.1-0.1,0.3-0.2,0.5-0.2s0.4-0.1,0.6-0.1c0.4,0,0.7,0.1,1,0.2c0.2,0.1,0.4,0.3,0.5,0.6c0.1,0.2,0.2,0.5,0.2,0.8v2
				c0,0.1,0,0.2-0.1,0.2c-0.1,0.1-0.2,0.1-0.4,0.1c-0.1,0-0.2,0-0.3-0.1c-0.1-0.1-0.1-0.1-0.1-0.2v-0.2c-0.1,0.2-0.3,0.3-0.5,0.4
				C38.5,148.9,38.2,149,37.9,149z M38.4,148.2c0.1,0,0.2,0,0.3-0.1c0.1-0.1,0.2-0.2,0.3-0.3c0.1-0.1,0.1-0.2,0.1-0.4v-0.2H39
				c-0.2,0-0.3,0-0.5,0c-0.2,0-0.3,0.1-0.4,0.1c-0.1,0.1-0.1,0.2-0.1,0.3s0,0.3,0.1,0.3S38.2,148.2,38.4,148.2z"/>
			<path class="st6" d="M42.2,149c-0.3,0-0.5-0.1-0.7-0.2c-0.2-0.2-0.4-0.4-0.5-0.6c-0.1-0.2-0.2-0.5-0.2-0.8v-0.7
				c0-0.3,0.1-0.6,0.2-0.8s0.3-0.4,0.5-0.6c0.2-0.1,0.5-0.2,0.7-0.2c0.3,0,0.5,0.1,0.6,0.2c0.2,0.1,0.3,0.3,0.4,0.4v-2.5
				c0-0.1,0.1-0.2,0.2-0.2c0.1-0.1,0.2-0.1,0.4-0.1c0.1,0,0.3,0,0.4,0.1c0.1,0.1,0.1,0.1,0.1,0.2v5.4c0,0.1,0,0.2-0.1,0.2
				s-0.2,0.1-0.4,0.1c-0.1,0-0.2,0-0.3-0.1c-0.1-0.1-0.1-0.1-0.1-0.2v-0.2c-0.1,0.2-0.2,0.3-0.4,0.4S42.4,149,42.2,149z M42.5,148.1
				c0.1,0,0.3,0,0.4-0.1c0.1-0.1,0.2-0.2,0.3-0.3c0.1-0.1,0.1-0.2,0.1-0.2v-0.8c0-0.1,0-0.3-0.1-0.4c-0.1-0.1-0.2-0.2-0.3-0.2
				s-0.2-0.1-0.3-0.1c-0.1,0-0.2,0-0.4,0.1c-0.1,0.1-0.2,0.2-0.3,0.3s-0.1,0.2-0.1,0.3v0.7c0,0.1,0,0.2,0.1,0.4
				c0.1,0.1,0.1,0.2,0.3,0.3S42.4,148.1,42.5,148.1z"/>
			<path class="st6" d="M45.6,144.3c-0.2,0-0.3-0.1-0.4-0.2c-0.1-0.1-0.2-0.2-0.2-0.3c0-0.1,0.1-0.3,0.2-0.4
				c0.1-0.1,0.2-0.1,0.4-0.1c0.2,0,0.3,0,0.4,0.1c0.1,0.1,0.2,0.2,0.2,0.4c0,0.1-0.1,0.2-0.2,0.3C45.8,144.2,45.7,144.3,45.6,144.3z
				 M45.6,148.9c-0.1,0-0.3,0-0.4-0.1c-0.1-0.1-0.1-0.1-0.1-0.2v-3.1c0-0.1,0-0.2,0.1-0.2c0.1-0.1,0.2-0.1,0.4-0.1
				c0.1,0,0.3,0,0.4,0.1s0.2,0.1,0.2,0.2v3.1c0,0.1-0.1,0.2-0.2,0.2S45.7,148.9,45.6,148.9z"/>
			<path class="st6" d="M47.7,149c-0.3,0-0.5-0.1-0.7-0.3c-0.2-0.2-0.3-0.4-0.3-0.8c0-0.3,0.1-0.5,0.2-0.7s0.4-0.3,0.7-0.4
				s0.6-0.1,1-0.1h0.3v-0.1c0-0.1,0-0.2-0.1-0.3c0-0.1-0.1-0.2-0.2-0.3c-0.1-0.1-0.2-0.1-0.4-0.1c-0.2,0-0.4,0-0.5,0.1
				s-0.2,0.1-0.3,0.1s-0.1,0.1-0.2,0.1c-0.1,0-0.2-0.1-0.3-0.2c-0.1-0.1-0.1-0.2-0.1-0.3c0-0.1,0.1-0.2,0.2-0.3
				c0.1-0.1,0.3-0.2,0.5-0.2s0.4-0.1,0.6-0.1c0.4,0,0.7,0.1,1,0.2c0.2,0.1,0.4,0.3,0.5,0.6c0.1,0.2,0.2,0.5,0.2,0.8v2
				c0,0.1,0,0.2-0.1,0.2c-0.1,0.1-0.2,0.1-0.4,0.1c-0.1,0-0.2,0-0.3-0.1c-0.1-0.1-0.1-0.1-0.1-0.2v-0.2c-0.1,0.2-0.3,0.3-0.5,0.4
				C48.2,148.9,48,149,47.7,149z M48.1,148.2c0.1,0,0.2,0,0.3-0.1c0.1-0.1,0.2-0.2,0.3-0.3c0.1-0.1,0.1-0.2,0.1-0.4v-0.2h-0.1
				c-0.2,0-0.3,0-0.5,0c-0.2,0-0.3,0.1-0.4,0.1c-0.1,0.1-0.1,0.2-0.1,0.3s0,0.3,0.1,0.3S48,148.2,48.1,148.2z"/>
			<path class="st6" d="M54.2,149c-0.4,0-0.7-0.1-1-0.2c-0.3-0.1-0.5-0.3-0.7-0.6c-0.2-0.3-0.3-0.6-0.3-1.1v-3.7
				c0-0.1,0.1-0.2,0.2-0.3s0.2-0.1,0.4-0.1c0.1,0,0.2,0,0.4,0.1s0.2,0.1,0.2,0.3v3.7c0,0.3,0.1,0.5,0.2,0.7c0.2,0.2,0.4,0.2,0.6,0.2
				c0.3,0,0.5-0.1,0.7-0.2c0.2-0.2,0.2-0.4,0.2-0.7v-3.7c0-0.1,0.1-0.2,0.2-0.3s0.2-0.1,0.4-0.1c0.1,0,0.2,0,0.4,0.1
				s0.2,0.1,0.2,0.3v3.7c0,0.4-0.1,0.8-0.3,1.1c-0.2,0.3-0.4,0.5-0.7,0.6C54.9,148.9,54.6,149,54.2,149z"/>
			<path class="st6" d="M58.2,149c-0.3,0-0.5,0-0.7-0.1s-0.4-0.2-0.5-0.3c-0.1-0.1-0.2-0.2-0.2-0.3c0-0.1,0-0.1,0-0.2
				s0.1-0.1,0.1-0.2s0.1-0.1,0.2-0.1c0.1,0,0.2,0,0.2,0.1c0.1,0.1,0.2,0.1,0.3,0.2c0.1,0.1,0.3,0.1,0.5,0.1c0.2,0,0.4,0,0.5-0.1
				c0.1-0.1,0.1-0.2,0.1-0.2c0-0.1,0-0.2-0.1-0.3c-0.1-0.1-0.2-0.1-0.4-0.2c-0.1,0-0.3-0.1-0.5-0.1c-0.2,0-0.3-0.1-0.5-0.2
				c-0.1-0.1-0.3-0.2-0.4-0.3s-0.1-0.3-0.1-0.5c0-0.2,0-0.4,0.1-0.6c0.1-0.2,0.2-0.3,0.4-0.5s0.5-0.2,0.8-0.2c0.2,0,0.4,0,0.6,0.1
				c0.2,0,0.4,0.1,0.5,0.2c0.1,0.1,0.2,0.2,0.2,0.3c0,0,0,0.1,0,0.2c0,0.1-0.1,0.1-0.1,0.2c-0.1,0.1-0.1,0.1-0.2,0.1
				c-0.1,0-0.1,0-0.2-0.1c-0.1,0-0.2-0.1-0.3-0.1c-0.1,0-0.2-0.1-0.4-0.1c-0.1,0-0.2,0-0.3,0.1c-0.1,0-0.1,0.1-0.2,0.1
				c0,0.1-0.1,0.1-0.1,0.2c0,0.1,0,0.2,0.1,0.2c0.1,0.1,0.2,0.1,0.4,0.1c0.1,0,0.3,0.1,0.5,0.1c0.2,0,0.3,0.1,0.5,0.2
				c0.1,0.1,0.3,0.2,0.4,0.3c0.1,0.1,0.1,0.3,0.1,0.6c0,0.4-0.1,0.6-0.4,0.9C59.1,148.9,58.7,149,58.2,149z"/>
			<path class="st6" d="M62.1,149c-0.4,0-0.7-0.1-1-0.2c-0.3-0.1-0.5-0.3-0.7-0.6c-0.2-0.2-0.2-0.5-0.2-0.9v-0.7
				c0-0.3,0.1-0.6,0.2-0.8c0.2-0.2,0.4-0.4,0.6-0.6c0.3-0.1,0.6-0.2,0.9-0.2c0.3,0,0.6,0.1,0.8,0.2s0.4,0.3,0.6,0.5
				c0.2,0.2,0.2,0.5,0.2,0.8c0,0.2,0,0.4-0.1,0.5c-0.1,0.1-0.2,0.2-0.3,0.2c-0.1,0-0.2,0-0.4,0h-1.6v0.1c0,0.2,0.1,0.4,0.3,0.6
				c0.2,0.1,0.4,0.2,0.7,0.2c0.2,0,0.3,0,0.4-0.1s0.2-0.1,0.3-0.2c0.1,0,0.2-0.1,0.2-0.1c0.1,0,0.1,0,0.2,0.1
				c0.1,0.1,0.1,0.1,0.1,0.2c0,0.1,0,0.1,0,0.2c0,0.1-0.1,0.2-0.2,0.3c-0.1,0.1-0.3,0.2-0.5,0.3C62.7,149,62.4,149,62.1,149z
				 M61.2,146.7h1.2c0.1,0,0.2,0,0.2,0c0,0,0.1-0.1,0.1-0.2c0-0.1,0-0.2-0.1-0.3c-0.1-0.1-0.2-0.2-0.3-0.2c-0.1-0.1-0.2-0.1-0.3-0.1
				c-0.1,0-0.2,0-0.3,0.1c-0.1,0.1-0.2,0.1-0.3,0.2c-0.1,0.1-0.1,0.2-0.1,0.3V146.7z"/>
			<path class="st6" d="M64.7,148.9c-0.1,0-0.3,0-0.4-0.1c-0.1-0.1-0.1-0.1-0.1-0.2v-3.1c0-0.1,0-0.2,0.1-0.2
				c0.1-0.1,0.2-0.1,0.4-0.1c0.1,0,0.2,0,0.3,0.1s0.1,0.1,0.1,0.2v0.3c0.1-0.1,0.1-0.2,0.2-0.3c0.1-0.1,0.2-0.2,0.3-0.3
				s0.3-0.1,0.4-0.1h0.2c0.1,0,0.2,0,0.3,0.1c0.1,0.1,0.1,0.2,0.1,0.3c0,0.1,0,0.2-0.1,0.3c-0.1,0.1-0.2,0.1-0.3,0.1h-0.2
				c-0.1,0-0.3,0-0.4,0.1s-0.3,0.2-0.3,0.4c-0.1,0.2-0.1,0.4-0.1,0.6v1.4c0,0.1-0.1,0.2-0.2,0.2S64.9,148.9,64.7,148.9z"/>
			<path class="st6" d="M68.4,149c-0.3,0-0.5,0-0.7-0.1s-0.4-0.2-0.5-0.3c-0.1-0.1-0.2-0.2-0.2-0.3c0-0.1,0-0.1,0-0.2
				s0.1-0.1,0.1-0.2s0.1-0.1,0.2-0.1c0.1,0,0.2,0,0.2,0.1c0.1,0.1,0.2,0.1,0.3,0.2c0.1,0.1,0.3,0.1,0.5,0.1c0.2,0,0.4,0,0.5-0.1
				C69,148,69,148,69,147.9c0-0.1,0-0.2-0.1-0.3c-0.1-0.1-0.2-0.1-0.4-0.2c-0.1,0-0.3-0.1-0.5-0.1c-0.2,0-0.3-0.1-0.5-0.2
				c-0.1-0.1-0.3-0.2-0.4-0.3s-0.1-0.3-0.1-0.5c0-0.2,0-0.4,0.1-0.6c0.1-0.2,0.2-0.3,0.4-0.5s0.5-0.2,0.8-0.2c0.2,0,0.4,0,0.6,0.1
				c0.2,0,0.4,0.1,0.5,0.2c0.1,0.1,0.2,0.2,0.2,0.3c0,0,0,0.1,0,0.2c0,0.1-0.1,0.1-0.1,0.2c-0.1,0.1-0.1,0.1-0.2,0.1
				c-0.1,0-0.1,0-0.2-0.1c-0.1,0-0.2-0.1-0.3-0.1c-0.1,0-0.2-0.1-0.4-0.1c-0.1,0-0.2,0-0.3,0.1c-0.1,0-0.1,0.1-0.2,0.1
				c0,0.1-0.1,0.1-0.1,0.2c0,0.1,0,0.2,0.1,0.2c0.1,0.1,0.2,0.1,0.4,0.1c0.1,0,0.3,0.1,0.5,0.1c0.2,0,0.3,0.1,0.5,0.2
				c0.1,0.1,0.3,0.2,0.4,0.3c0.1,0.1,0.1,0.3,0.1,0.6c0,0.4-0.1,0.6-0.4,0.9C69.3,148.9,68.9,149,68.4,149z"/>
			<path class="st6" d="M73.7,149c-0.3,0-0.6-0.1-0.9-0.2c-0.3-0.2-0.5-0.4-0.6-0.6c-0.2-0.3-0.2-0.5-0.2-0.8v-0.7
				c0-0.3,0.1-0.6,0.2-0.8c0.2-0.2,0.4-0.4,0.6-0.6s0.6-0.2,0.9-0.2s0.6,0.1,0.9,0.2c0.3,0.1,0.5,0.3,0.6,0.6s0.2,0.5,0.2,0.8v0.7
				c0,0.3-0.1,0.5-0.2,0.8c-0.2,0.3-0.4,0.5-0.6,0.6C74.3,148.9,74,149,73.7,149z M73.7,148.1c0.1,0,0.2,0,0.4-0.1s0.2-0.2,0.3-0.3
				c0.1-0.1,0.1-0.2,0.1-0.4v-0.7c0-0.1,0-0.2-0.1-0.3c-0.1-0.1-0.1-0.2-0.3-0.3c-0.1-0.1-0.2-0.1-0.4-0.1c-0.1,0-0.2,0-0.4,0.1
				c-0.1,0.1-0.2,0.2-0.3,0.3c-0.1,0.1-0.1,0.2-0.1,0.3v0.7c0,0.1,0,0.2,0.1,0.4c0.1,0.1,0.1,0.2,0.3,0.3
				C73.5,148.1,73.6,148.1,73.7,148.1z"/>
			<path class="st6" d="M76.6,148.9c-0.1,0-0.3,0-0.4-0.1c-0.1-0.1-0.1-0.1-0.1-0.2v-4.1c0-0.3,0.1-0.6,0.2-0.8s0.3-0.4,0.5-0.6
				c0.2-0.1,0.4-0.2,0.7-0.2H78c0.1,0,0.2,0,0.3,0.1c0.1,0.1,0.1,0.2,0.1,0.3c0,0.1,0,0.2-0.1,0.3c-0.1,0.1-0.2,0.1-0.3,0.1h-0.3
				c-0.1,0-0.2,0-0.3,0.1s-0.2,0.1-0.2,0.2s-0.1,0.2-0.1,0.3v0.8h1c0.1,0,0.2,0,0.2,0.1c0,0.1,0.1,0.2,0.1,0.3c0,0.1,0,0.2-0.1,0.3
				c0,0.1-0.1,0.1-0.2,0.1h-1v2.7c0,0.1-0.1,0.2-0.2,0.2C76.9,148.9,76.8,148.9,76.6,148.9z"/>
			<path class="st6" d="M82.3,149c-0.4,0-0.7-0.1-1-0.2c-0.3-0.1-0.5-0.3-0.7-0.6c-0.2-0.3-0.3-0.6-0.3-1.1v-2.2
				c0-0.4,0.1-0.8,0.3-1.1s0.4-0.5,0.7-0.6c0.3-0.1,0.6-0.2,0.9-0.2c0.4,0,0.7,0.1,1,0.2s0.5,0.3,0.7,0.5c0.2,0.2,0.2,0.5,0.2,0.8
				c0,0.2,0,0.3-0.1,0.4c-0.1,0.1-0.2,0.1-0.4,0.1c-0.1,0-0.3,0-0.4-0.1c-0.1,0-0.2-0.1-0.2-0.3c0-0.1,0-0.3-0.1-0.4
				c0-0.1-0.1-0.2-0.2-0.3c-0.1-0.1-0.3-0.1-0.5-0.1c-0.3,0-0.5,0.1-0.6,0.2c-0.1,0.2-0.2,0.4-0.2,0.7v2.2c0,0.3,0.1,0.5,0.2,0.7
				c0.1,0.2,0.4,0.2,0.6,0.2c0.3,0,0.5-0.1,0.6-0.2c0.1-0.2,0.2-0.4,0.2-0.7v-0.5h-0.6c-0.1,0-0.2,0-0.2-0.1
				c-0.1-0.1-0.1-0.2-0.1-0.3s0-0.2,0.1-0.3c0.1-0.1,0.1-0.1,0.2-0.1h1.4c0.1,0,0.2,0,0.2,0.1c0.1,0.1,0.1,0.1,0.1,0.2v0.9
				c0,0.4-0.1,0.8-0.2,1.1c-0.2,0.3-0.4,0.5-0.7,0.6C83,148.9,82.7,149,82.3,149z"/>
			<path class="st6" d="M86.7,149c-0.4,0-0.7-0.1-1-0.2c-0.3-0.1-0.5-0.3-0.7-0.6s-0.2-0.5-0.2-0.9v-0.7c0-0.3,0.1-0.6,0.2-0.8
				c0.2-0.2,0.4-0.4,0.6-0.6c0.3-0.1,0.6-0.2,0.9-0.2c0.3,0,0.6,0.1,0.8,0.2s0.4,0.3,0.6,0.5c0.2,0.2,0.2,0.5,0.2,0.8
				c0,0.2,0,0.4-0.1,0.5c-0.1,0.1-0.2,0.2-0.3,0.2c-0.1,0-0.2,0-0.4,0h-1.6v0.1c0,0.2,0.1,0.4,0.3,0.6c0.2,0.1,0.4,0.2,0.7,0.2
				c0.2,0,0.3,0,0.4-0.1c0.1-0.1,0.2-0.1,0.3-0.2s0.2-0.1,0.2-0.1c0.1,0,0.1,0,0.2,0.1c0.1,0.1,0.1,0.1,0.1,0.2s0,0.1,0,0.2
				c0,0.1-0.1,0.2-0.2,0.3c-0.1,0.1-0.3,0.2-0.5,0.3C87.3,149,87,149,86.7,149z M85.8,146.7H87c0.1,0,0.2,0,0.2,0
				c0,0,0.1-0.1,0.1-0.2c0-0.1,0-0.2-0.1-0.3s-0.2-0.2-0.3-0.2c-0.1-0.1-0.2-0.1-0.3-0.1c-0.1,0-0.2,0-0.3,0.1
				c-0.1,0.1-0.2,0.1-0.3,0.2c-0.1,0.1-0.1,0.2-0.1,0.3V146.7z"/>
			<path class="st6" d="M90.4,149c-0.3,0-0.6-0.1-0.9-0.2c-0.3-0.2-0.5-0.4-0.6-0.6c-0.2-0.3-0.2-0.5-0.2-0.8v-0.7
				c0-0.3,0.1-0.6,0.2-0.8c0.2-0.2,0.4-0.4,0.6-0.6c0.3-0.1,0.6-0.2,0.9-0.2c0.3,0,0.6,0.1,0.9,0.2s0.5,0.3,0.6,0.6s0.2,0.5,0.2,0.8
				v0.7c0,0.3-0.1,0.5-0.2,0.8c-0.2,0.3-0.4,0.5-0.6,0.6S90.7,149,90.4,149z M90.4,148.1c0.1,0,0.2,0,0.4-0.1s0.2-0.2,0.3-0.3
				c0.1-0.1,0.1-0.2,0.1-0.4v-0.7c0-0.1,0-0.2-0.1-0.3c-0.1-0.1-0.1-0.2-0.3-0.3c-0.1-0.1-0.2-0.1-0.4-0.1c-0.1,0-0.2,0-0.4,0.1
				s-0.2,0.2-0.3,0.3s-0.1,0.2-0.1,0.3v0.7c0,0.1,0,0.2,0.1,0.4c0.1,0.1,0.1,0.2,0.3,0.3S90.3,148.1,90.4,148.1z"/>
			<path class="st6" d="M94,149c-0.3,0-0.5,0-0.7-0.1c-0.2-0.1-0.4-0.2-0.5-0.3s-0.2-0.2-0.2-0.3c0-0.1,0-0.1,0-0.2s0.1-0.1,0.1-0.2
				s0.1-0.1,0.2-0.1c0.1,0,0.2,0,0.2,0.1c0.1,0.1,0.2,0.1,0.3,0.2s0.3,0.1,0.5,0.1c0.2,0,0.4,0,0.5-0.1c0.1-0.1,0.1-0.2,0.1-0.2
				c0-0.1,0-0.2-0.1-0.3c-0.1-0.1-0.2-0.1-0.4-0.2c-0.1,0-0.3-0.1-0.5-0.1s-0.3-0.1-0.5-0.2c-0.1-0.1-0.3-0.2-0.4-0.3
				c-0.1-0.1-0.1-0.3-0.1-0.5c0-0.2,0-0.4,0.1-0.6c0.1-0.2,0.2-0.3,0.4-0.5c0.2-0.1,0.5-0.2,0.8-0.2c0.2,0,0.4,0,0.6,0.1
				c0.2,0,0.4,0.1,0.5,0.2c0.1,0.1,0.2,0.2,0.2,0.3c0,0,0,0.1,0,0.2c0,0.1-0.1,0.1-0.1,0.2c-0.1,0.1-0.1,0.1-0.2,0.1
				c-0.1,0-0.1,0-0.2-0.1s-0.2-0.1-0.3-0.1c-0.1,0-0.2-0.1-0.4-0.1c-0.1,0-0.2,0-0.3,0.1c-0.1,0-0.1,0.1-0.2,0.1
				c0,0.1-0.1,0.1-0.1,0.2c0,0.1,0,0.2,0.1,0.2c0.1,0.1,0.2,0.1,0.4,0.1c0.1,0,0.3,0.1,0.5,0.1c0.2,0,0.3,0.1,0.5,0.2
				c0.1,0.1,0.3,0.2,0.4,0.3c0.1,0.1,0.1,0.3,0.1,0.6c0,0.4-0.1,0.6-0.4,0.9C94.9,148.9,94.5,149,94,149z"/>
			<path class="st6" d="M96.7,150.7c-0.1,0-0.3,0-0.4-0.1c-0.1-0.1-0.1-0.1-0.1-0.2v-4.9c0-0.1,0-0.2,0.1-0.2
				c0.1-0.1,0.2-0.1,0.4-0.1s0.3,0,0.3,0.1s0.1,0.1,0.1,0.2v0.2c0.1-0.2,0.2-0.3,0.4-0.4s0.4-0.2,0.7-0.2c0.3,0,0.5,0.1,0.7,0.2
				c0.2,0.1,0.4,0.3,0.5,0.6c0.1,0.2,0.2,0.5,0.2,0.8v0.7c0,0.3-0.1,0.5-0.2,0.8c-0.1,0.3-0.3,0.5-0.5,0.6c-0.2,0.2-0.4,0.2-0.7,0.2
				c-0.2,0-0.4-0.1-0.6-0.2c-0.2-0.1-0.3-0.3-0.4-0.4v2c0,0.1-0.1,0.2-0.2,0.2S96.8,150.7,96.7,150.7z M97.9,148.1
				c0.1,0,0.2,0,0.3-0.1s0.2-0.2,0.3-0.3c0.1-0.1,0.1-0.2,0.1-0.4v-0.7c0-0.1,0-0.2-0.1-0.3c-0.1-0.1-0.2-0.2-0.3-0.3
				c-0.1-0.1-0.2-0.1-0.4-0.1c-0.1,0-0.2,0-0.3,0.1c-0.1,0.1-0.2,0.1-0.3,0.2s-0.1,0.2-0.1,0.4v0.8c0,0.1,0,0.1,0.1,0.2
				c0.1,0.1,0.1,0.2,0.3,0.3S97.8,148.1,97.9,148.1z"/>
			<path class="st6" d="M101.1,149c-0.3,0-0.5-0.1-0.7-0.3c-0.2-0.2-0.3-0.4-0.3-0.8c0-0.3,0.1-0.5,0.2-0.7s0.4-0.3,0.7-0.4
				c0.3-0.1,0.6-0.1,1-0.1h0.3v-0.1c0-0.1,0-0.2-0.1-0.3c0-0.1-0.1-0.2-0.2-0.3c-0.1-0.1-0.2-0.1-0.4-0.1c-0.2,0-0.4,0-0.5,0.1
				s-0.2,0.1-0.3,0.1c-0.1,0-0.1,0.1-0.2,0.1c-0.1,0-0.2-0.1-0.3-0.2c-0.1-0.1-0.1-0.2-0.1-0.3c0-0.1,0.1-0.2,0.2-0.3
				c0.1-0.1,0.3-0.2,0.5-0.2s0.4-0.1,0.6-0.1c0.4,0,0.8,0.1,1,0.2c0.3,0.1,0.4,0.3,0.5,0.6c0.1,0.2,0.2,0.5,0.2,0.8v2
				c0,0.1,0,0.2-0.1,0.2c-0.1,0.1-0.2,0.1-0.4,0.1c-0.1,0-0.2,0-0.3-0.1c-0.1-0.1-0.1-0.1-0.1-0.2v-0.2c-0.1,0.2-0.3,0.3-0.5,0.4
				S101.4,149,101.1,149z M101.5,148.2c0.1,0,0.2,0,0.3-0.1c0.1-0.1,0.2-0.2,0.3-0.3c0.1-0.1,0.1-0.2,0.1-0.4v-0.2h-0.1
				c-0.2,0-0.3,0-0.5,0c-0.2,0-0.3,0.1-0.4,0.1c-0.1,0.1-0.1,0.2-0.1,0.3s0,0.3,0.1,0.3S101.4,148.2,101.5,148.2z"/>
			<path class="st6" d="M105.5,148.9c-0.5,0-0.8-0.1-1.1-0.3c-0.3-0.2-0.4-0.5-0.4-1v-3.9c0-0.1,0.1-0.2,0.2-0.2
				c0.1-0.1,0.2-0.1,0.3-0.1c0.1,0,0.2,0,0.4,0.1s0.2,0.1,0.2,0.2v1.4h0.9c0.1,0,0.2,0,0.2,0.1c0,0.1,0.1,0.2,0.1,0.3
				c0,0.1,0,0.2-0.1,0.3c0,0.1-0.1,0.1-0.2,0.1h-0.9v1.7c0,0.2,0,0.3,0.1,0.3c0.1,0.1,0.2,0.1,0.3,0.1h0.3c0.1,0,0.3,0,0.3,0.1
				s0.1,0.2,0.1,0.3c0,0.1,0,0.2-0.1,0.3c-0.1,0.1-0.2,0.1-0.3,0.1H105.5z"/>
			<path class="st6" d="M107.3,144.3c-0.2,0-0.3-0.1-0.4-0.2c-0.1-0.1-0.2-0.2-0.2-0.3c0-0.1,0.1-0.3,0.2-0.4
				c0.1-0.1,0.2-0.1,0.4-0.1c0.2,0,0.3,0,0.4,0.1c0.1,0.1,0.2,0.2,0.2,0.4c0,0.1-0.1,0.2-0.2,0.3
				C107.6,144.2,107.5,144.3,107.3,144.3z M107.3,148.9c-0.1,0-0.3,0-0.4-0.1s-0.1-0.1-0.1-0.2v-3.1c0-0.1,0-0.2,0.1-0.2
				s0.2-0.1,0.4-0.1c0.1,0,0.3,0,0.4,0.1c0.1,0.1,0.2,0.1,0.2,0.2v3.1c0,0.1-0.1,0.2-0.2,0.2C107.6,148.9,107.5,148.9,107.3,148.9z"
				/>
			<path class="st6" d="M109.4,149c-0.3,0-0.5-0.1-0.7-0.3c-0.2-0.2-0.3-0.4-0.3-0.8c0-0.3,0.1-0.5,0.2-0.7s0.4-0.3,0.7-0.4
				c0.3-0.1,0.6-0.1,1-0.1h0.3v-0.1c0-0.1,0-0.2-0.1-0.3c0-0.1-0.1-0.2-0.2-0.3c-0.1-0.1-0.2-0.1-0.4-0.1c-0.2,0-0.4,0-0.5,0.1
				s-0.2,0.1-0.3,0.1c-0.1,0-0.1,0.1-0.2,0.1c-0.1,0-0.2-0.1-0.3-0.2c-0.1-0.1-0.1-0.2-0.1-0.3c0-0.1,0.1-0.2,0.2-0.3
				c0.1-0.1,0.3-0.2,0.5-0.2s0.4-0.1,0.6-0.1c0.4,0,0.8,0.1,1,0.2c0.3,0.1,0.4,0.3,0.5,0.6c0.1,0.2,0.2,0.5,0.2,0.8v2
				c0,0.1,0,0.2-0.1,0.2c-0.1,0.1-0.2,0.1-0.4,0.1c-0.1,0-0.2,0-0.3-0.1c-0.1-0.1-0.1-0.1-0.1-0.2v-0.2c-0.1,0.2-0.3,0.3-0.5,0.4
				S109.7,149,109.4,149z M109.9,148.2c0.1,0,0.2,0,0.3-0.1c0.1-0.1,0.2-0.2,0.3-0.3c0.1-0.1,0.1-0.2,0.1-0.4v-0.2h-0.1
				c-0.2,0-0.3,0-0.5,0c-0.2,0-0.3,0.1-0.4,0.1c-0.1,0.1-0.1,0.2-0.1,0.3s0,0.3,0.1,0.3S109.7,148.2,109.9,148.2z"/>
			<path class="st6" d="M113,148.9c-0.1,0-0.3,0-0.4-0.1c-0.1-0.1-0.1-0.1-0.1-0.2v-5.4c0-0.1,0-0.2,0.1-0.2
				c0.1-0.1,0.2-0.1,0.4-0.1c0.1,0,0.3,0,0.4,0.1c0.1,0.1,0.2,0.1,0.2,0.2v5.4c0,0.1-0.1,0.2-0.2,0.2
				C113.3,148.9,113.1,148.9,113,148.9z"/>
			<path class="st6" d="M117.9,149c-0.4,0-0.7-0.1-1-0.2c-0.3-0.1-0.5-0.3-0.7-0.6c-0.2-0.3-0.3-0.6-0.3-1.1v-2.2
				c0-0.4,0.1-0.8,0.3-1.1s0.4-0.5,0.7-0.6c0.3-0.1,0.6-0.2,1-0.2c0.4,0,0.7,0.1,1,0.2s0.5,0.3,0.7,0.6s0.2,0.6,0.2,1.1v2.2
				c0,0.4-0.1,0.8-0.2,1.1c-0.2,0.3-0.4,0.5-0.7,0.6C118.5,148.9,118.2,149,117.9,149z M117.9,148.1c0.3,0,0.5-0.1,0.6-0.2
				s0.2-0.4,0.2-0.7v-2.2c0-0.3-0.1-0.6-0.2-0.7s-0.4-0.2-0.6-0.2s-0.5,0.1-0.6,0.2c-0.1,0.1-0.2,0.4-0.2,0.7v2.2
				c0,0.3,0.1,0.6,0.2,0.7C117.4,148,117.6,148.1,117.9,148.1z"/>
			<path class="st6" d="M121.1,150.7c-0.1,0-0.3,0-0.4-0.1c-0.1-0.1-0.1-0.1-0.1-0.2v-4.9c0-0.1,0-0.2,0.1-0.2
				c0.1-0.1,0.2-0.1,0.4-0.1s0.3,0,0.3,0.1s0.1,0.1,0.1,0.2v0.2c0.1-0.2,0.2-0.3,0.4-0.4s0.4-0.2,0.7-0.2c0.3,0,0.5,0.1,0.7,0.2
				c0.2,0.1,0.4,0.3,0.5,0.6c0.1,0.2,0.2,0.5,0.2,0.8v0.7c0,0.3-0.1,0.5-0.2,0.8c-0.1,0.3-0.3,0.5-0.5,0.6c-0.2,0.2-0.4,0.2-0.7,0.2
				c-0.2,0-0.4-0.1-0.6-0.2c-0.2-0.1-0.3-0.3-0.4-0.4v2c0,0.1-0.1,0.2-0.2,0.2S121.2,150.7,121.1,150.7z M122.3,148.1
				c0.1,0,0.2,0,0.3-0.1s0.2-0.2,0.3-0.3c0.1-0.1,0.1-0.2,0.1-0.4v-0.7c0-0.1,0-0.2-0.1-0.3c-0.1-0.1-0.2-0.2-0.3-0.3
				c-0.1-0.1-0.2-0.1-0.4-0.1c-0.1,0-0.2,0-0.3,0.1c-0.1,0.1-0.2,0.1-0.3,0.2s-0.1,0.2-0.1,0.4v0.8c0,0.1,0,0.1,0.1,0.2
				c0.1,0.1,0.1,0.2,0.3,0.3S122.2,148.1,122.3,148.1z"/>
			<path class="st6" d="M126.5,149c-0.4,0-0.7-0.1-1-0.2c-0.3-0.1-0.5-0.3-0.7-0.6s-0.2-0.5-0.2-0.9v-0.7c0-0.3,0.1-0.6,0.2-0.8
				c0.2-0.2,0.4-0.4,0.6-0.6s0.6-0.2,0.9-0.2c0.3,0,0.6,0.1,0.8,0.2s0.4,0.3,0.6,0.5c0.2,0.2,0.2,0.5,0.2,0.8c0,0.2,0,0.4-0.1,0.5
				c-0.1,0.1-0.2,0.2-0.3,0.2c-0.1,0-0.2,0-0.4,0h-1.6v0.1c0,0.2,0.1,0.4,0.3,0.6c0.2,0.1,0.4,0.2,0.7,0.2c0.2,0,0.3,0,0.4-0.1
				s0.2-0.1,0.3-0.2c0.1,0,0.2-0.1,0.2-0.1c0.1,0,0.1,0,0.2,0.1c0.1,0.1,0.1,0.1,0.1,0.2s0,0.1,0,0.2c0,0.1-0.1,0.2-0.2,0.3
				c-0.1,0.1-0.3,0.2-0.5,0.3C127.1,149,126.8,149,126.5,149z M125.6,146.7h1.2c0.1,0,0.2,0,0.2,0c0,0,0.1-0.1,0.1-0.2
				c0-0.1,0-0.2-0.1-0.3c-0.1-0.1-0.2-0.2-0.3-0.2c-0.1-0.1-0.2-0.1-0.3-0.1c-0.1,0-0.2,0-0.3,0.1c-0.1,0.1-0.2,0.1-0.3,0.2
				c-0.1,0.1-0.1,0.2-0.1,0.3V146.7z"/>
			<path class="st6" d="M129.1,148.9c-0.1,0-0.3,0-0.4-0.1s-0.1-0.1-0.1-0.2v-3.1c0-0.1,0-0.2,0.1-0.2s0.2-0.1,0.4-0.1
				c0.1,0,0.2,0,0.3,0.1s0.1,0.1,0.1,0.2v0.2c0.1-0.2,0.2-0.3,0.4-0.4c0.2-0.1,0.4-0.2,0.7-0.2c0.2,0,0.5,0.1,0.7,0.2
				s0.4,0.3,0.5,0.6s0.2,0.5,0.2,0.8v1.9c0,0.1-0.1,0.2-0.2,0.3c-0.1,0.1-0.2,0.1-0.4,0.1c-0.1,0-0.2,0-0.3-0.1
				c-0.1-0.1-0.2-0.1-0.2-0.3v-1.9c0-0.1,0-0.2-0.1-0.3c-0.1-0.1-0.1-0.2-0.3-0.3c-0.1-0.1-0.2-0.1-0.4-0.1c-0.1,0-0.2,0-0.3,0.1
				c-0.1,0.1-0.2,0.1-0.2,0.2c-0.1,0.1-0.1,0.2-0.1,0.4v1.9c0,0.1-0.1,0.2-0.2,0.2C129.4,148.9,129.3,148.9,129.1,148.9z"/>
			<path class="st6" d="M136,149c-0.3,0-0.7,0-0.9-0.2c-0.3-0.1-0.5-0.2-0.7-0.4c-0.2-0.2-0.2-0.3-0.2-0.5c0-0.1,0-0.2,0.1-0.2
				s0.1-0.2,0.2-0.2c0.1-0.1,0.1-0.1,0.2-0.1c0.1,0,0.2,0,0.2,0.1c0.1,0.1,0.2,0.1,0.3,0.2c0.1,0.1,0.2,0.2,0.4,0.2s0.3,0.1,0.5,0.1
				c0.2,0,0.3,0,0.4-0.1s0.2-0.1,0.3-0.2c0.1-0.1,0.1-0.2,0.1-0.4c0-0.2,0-0.3-0.1-0.4c-0.1-0.1-0.2-0.2-0.4-0.3
				c-0.2-0.1-0.3-0.2-0.5-0.2c-0.2-0.1-0.4-0.2-0.5-0.3c-0.2-0.1-0.4-0.2-0.5-0.3c-0.2-0.1-0.3-0.3-0.4-0.5
				c-0.1-0.2-0.1-0.4-0.1-0.7c0-0.3,0.1-0.5,0.2-0.8c0.1-0.2,0.3-0.4,0.5-0.5s0.4-0.2,0.6-0.3c0.2-0.1,0.5-0.1,0.7-0.1
				c0.1,0,0.3,0,0.4,0s0.3,0.1,0.5,0.1c0.2,0,0.3,0.1,0.4,0.2c0.1,0.1,0.2,0.2,0.2,0.3c0,0.1,0,0.1,0,0.2c0,0.1-0.1,0.2-0.1,0.2
				s-0.1,0.1-0.2,0.1c-0.1,0-0.2,0-0.3-0.1c-0.1,0-0.2-0.1-0.3-0.2c-0.1-0.1-0.3-0.1-0.5-0.1c-0.2,0-0.3,0-0.5,0.1s-0.2,0.1-0.3,0.2
				c-0.1,0.1-0.1,0.2-0.1,0.3c0,0.1,0,0.3,0.1,0.4c0.1,0.1,0.2,0.2,0.4,0.3c0.2,0.1,0.3,0.1,0.5,0.2c0.2,0.1,0.4,0.2,0.5,0.3
				c0.2,0.1,0.4,0.2,0.5,0.4c0.2,0.1,0.3,0.3,0.4,0.5c0.1,0.2,0.1,0.5,0.1,0.8c0,0.4-0.1,0.7-0.2,1c-0.2,0.3-0.4,0.5-0.7,0.6
				C136.7,148.9,136.4,149,136,149z"/>
			<path class="st6" d="M140.1,149c-0.3,0-0.6-0.1-0.9-0.2s-0.5-0.4-0.6-0.6c-0.2-0.3-0.2-0.5-0.2-0.8v-0.7c0-0.3,0.1-0.6,0.2-0.8
				c0.2-0.2,0.4-0.4,0.6-0.6c0.3-0.1,0.6-0.2,0.9-0.2c0.3,0,0.6,0.1,0.9,0.2c0.3,0.1,0.5,0.3,0.6,0.6c0.2,0.2,0.2,0.5,0.2,0.8v0.7
				c0,0.3-0.1,0.5-0.2,0.8c-0.2,0.3-0.4,0.5-0.6,0.6C140.7,148.9,140.5,149,140.1,149z M140.1,148.1c0.1,0,0.2,0,0.4-0.1
				s0.2-0.2,0.3-0.3c0.1-0.1,0.1-0.2,0.1-0.4v-0.7c0-0.1,0-0.2-0.1-0.3c-0.1-0.1-0.1-0.2-0.3-0.3c-0.1-0.1-0.2-0.1-0.4-0.1
				c-0.1,0-0.2,0-0.4,0.1s-0.2,0.2-0.3,0.3s-0.1,0.2-0.1,0.3v0.7c0,0.1,0,0.2,0.1,0.4c0.1,0.1,0.1,0.2,0.3,0.3
				S140,148.1,140.1,148.1z"/>
			<path class="st6" d="M144.2,149c-0.3,0-0.6-0.1-0.9-0.2c-0.3-0.2-0.5-0.4-0.6-0.6s-0.2-0.5-0.2-0.8v-1.9c0-0.1,0.1-0.2,0.2-0.2
				c0.1-0.1,0.2-0.1,0.4-0.1s0.3,0,0.4,0.1c0.1,0.1,0.2,0.1,0.2,0.2v1.9c0,0.1,0,0.2,0.1,0.3c0.1,0.1,0.1,0.2,0.3,0.3
				s0.2,0.1,0.4,0.1c0.1,0,0.3,0,0.4-0.1c0.1-0.1,0.2-0.2,0.3-0.3c0.1-0.1,0.1-0.2,0.1-0.3v-1.9c0-0.1,0.1-0.2,0.2-0.2
				c0.1-0.1,0.2-0.1,0.4-0.1c0.2,0,0.3,0,0.4,0.1c0.1,0.1,0.1,0.1,0.1,0.2v1.9c0,0.3-0.1,0.6-0.2,0.8s-0.4,0.4-0.6,0.6
				S144.6,149,144.2,149z"/>
			<path class="st6" d="M147.2,148.9c-0.1,0-0.3,0-0.4-0.1s-0.1-0.1-0.1-0.2v-3.1c0-0.1,0-0.2,0.1-0.2s0.2-0.1,0.4-0.1
				c0.1,0,0.2,0,0.3,0.1s0.1,0.1,0.1,0.2v0.3c0.1-0.1,0.1-0.2,0.2-0.3c0.1-0.1,0.2-0.2,0.3-0.3s0.3-0.1,0.4-0.1h0.2
				c0.1,0,0.2,0,0.3,0.1c0.1,0.1,0.1,0.2,0.1,0.3c0,0.1,0,0.2-0.1,0.3c-0.1,0.1-0.2,0.1-0.3,0.1h-0.2c-0.1,0-0.3,0-0.4,0.1
				s-0.3,0.2-0.3,0.4c-0.1,0.2-0.1,0.4-0.1,0.6v1.4c0,0.1-0.1,0.2-0.2,0.2C147.5,148.9,147.4,148.9,147.2,148.9z"/>
		</g>
	</g>
	<g>
		<g>
			<path class="st6" d="M151.2,149c-0.4,0-0.7-0.1-1-0.2c-0.3-0.1-0.4-0.3-0.6-0.6c-0.1-0.2-0.2-0.5-0.2-0.8v-0.6
				c0-0.3,0.1-0.6,0.2-0.8s0.3-0.4,0.6-0.6c0.3-0.1,0.6-0.2,1-0.2c0.2,0,0.5,0,0.7,0.1c0.2,0.1,0.3,0.1,0.5,0.2
				c0.1,0.1,0.2,0.2,0.2,0.3c0,0.1,0,0.1-0.1,0.2c0,0.1-0.1,0.1-0.1,0.2c-0.1,0.1-0.1,0.1-0.2,0.1c-0.1,0-0.1,0-0.2-0.1
				c-0.1,0-0.1-0.1-0.2-0.1c-0.1,0-0.2-0.1-0.4-0.1c-0.3,0-0.5,0.1-0.6,0.2c-0.1,0.1-0.2,0.3-0.2,0.5v0.6c0,0.2,0.1,0.4,0.2,0.5
				c0.1,0.1,0.3,0.2,0.6,0.2c0.2,0,0.3,0,0.4-0.1c0.1,0,0.2-0.1,0.2-0.1c0.1,0,0.1-0.1,0.2-0.1c0.1,0,0.2,0,0.2,0.1s0.1,0.1,0.2,0.2
				c0,0.1,0.1,0.1,0.1,0.2c0,0.1-0.1,0.2-0.2,0.3c-0.1,0.1-0.3,0.2-0.5,0.2C151.6,149,151.4,149,151.2,149z"/>
			<path class="st6" d="M154.8,149c-0.4,0-0.7-0.1-1-0.2c-0.3-0.1-0.5-0.3-0.7-0.6s-0.2-0.5-0.2-0.9v-0.7c0-0.3,0.1-0.6,0.2-0.8
				c0.2-0.2,0.4-0.4,0.6-0.6s0.6-0.2,0.9-0.2c0.3,0,0.6,0.1,0.8,0.2s0.4,0.3,0.6,0.5c0.2,0.2,0.2,0.5,0.2,0.8c0,0.2,0,0.4-0.1,0.5
				c-0.1,0.1-0.2,0.2-0.3,0.2c-0.1,0-0.2,0-0.4,0h-1.6v0.1c0,0.2,0.1,0.4,0.3,0.6c0.2,0.1,0.4,0.2,0.7,0.2c0.2,0,0.3,0,0.4-0.1
				s0.2-0.1,0.3-0.2c0.1,0,0.2-0.1,0.2-0.1c0.1,0,0.1,0,0.2,0.1c0.1,0.1,0.1,0.1,0.1,0.2s0,0.1,0,0.2c0,0.1-0.1,0.2-0.2,0.3
				c-0.1,0.1-0.3,0.2-0.5,0.3C155.3,149,155.1,149,154.8,149z M153.9,146.7h1.2c0.1,0,0.2,0,0.2,0c0,0,0.1-0.1,0.1-0.2
				c0-0.1,0-0.2-0.1-0.3c-0.1-0.1-0.2-0.2-0.3-0.2c-0.1-0.1-0.2-0.1-0.3-0.1c-0.1,0-0.2,0-0.3,0.1c-0.1,0.1-0.2,0.1-0.3,0.2
				c-0.1,0.1-0.1,0.2-0.1,0.3V146.7z"/>
		</g>
	</g>
	<g>
		<g>
			<path class="st6" d="M75.6,158.6c-0.4,0-0.7-0.1-1-0.2c-0.3-0.1-0.4-0.3-0.6-0.6s-0.2-0.5-0.2-0.8v-0.6c0-0.3,0.1-0.6,0.2-0.8
				s0.3-0.4,0.6-0.6c0.3-0.1,0.6-0.2,1-0.2c0.3,0,0.5,0,0.7,0.1c0.2,0.1,0.3,0.1,0.5,0.2s0.2,0.2,0.2,0.3c0,0.1,0,0.1-0.1,0.2
				c0,0.1-0.1,0.1-0.1,0.2c-0.1,0.1-0.1,0.1-0.2,0.1c-0.1,0-0.1,0-0.2-0.1s-0.1-0.1-0.2-0.1c-0.1,0-0.2-0.1-0.4-0.1
				c-0.3,0-0.5,0.1-0.6,0.2c-0.1,0.1-0.2,0.3-0.2,0.5v0.6c0,0.2,0.1,0.4,0.2,0.5c0.1,0.1,0.3,0.2,0.6,0.2c0.2,0,0.3,0,0.4-0.1
				c0.1,0,0.2-0.1,0.2-0.1c0.1,0,0.1-0.1,0.2-0.1c0.1,0,0.2,0,0.2,0.1s0.1,0.1,0.2,0.2c0,0.1,0.1,0.1,0.1,0.2c0,0.1-0.1,0.2-0.2,0.3
				c-0.1,0.1-0.3,0.2-0.5,0.2C76.1,158.6,75.9,158.6,75.6,158.6z"/>
			<path class="st6" d="M79.2,158.6c-0.3,0-0.6-0.1-0.9-0.2c-0.3-0.2-0.5-0.4-0.6-0.6c-0.2-0.2-0.2-0.5-0.2-0.8v-1.9
				c0-0.1,0.1-0.2,0.2-0.2c0.1-0.1,0.2-0.1,0.4-0.1s0.3,0,0.4,0.1s0.2,0.1,0.2,0.2v1.9c0,0.1,0,0.2,0.1,0.3c0.1,0.1,0.1,0.2,0.3,0.3
				s0.2,0.1,0.4,0.1c0.1,0,0.3,0,0.4-0.1c0.1-0.1,0.2-0.2,0.3-0.3c0.1-0.1,0.1-0.2,0.1-0.3V155c0-0.1,0.1-0.2,0.2-0.2
				c0.1-0.1,0.2-0.1,0.4-0.1c0.2,0,0.3,0,0.4,0.1c0.1,0.1,0.1,0.1,0.1,0.2v1.9c0,0.3-0.1,0.6-0.2,0.8c-0.2,0.2-0.4,0.4-0.6,0.6
				C79.8,158.5,79.5,158.6,79.2,158.6z"/>
			<path class="st6" d="M83.2,160.3c-0.3,0-0.6,0-0.9-0.1s-0.5-0.2-0.6-0.4c-0.2-0.2-0.2-0.4-0.2-0.6c0-0.2,0.1-0.4,0.2-0.5
				c0.1-0.1,0.2-0.3,0.4-0.3c-0.1,0-0.2-0.1-0.2-0.2s-0.1-0.2-0.1-0.3c0-0.1,0-0.3,0.1-0.4c0.1-0.1,0.2-0.2,0.3-0.3
				c-0.2-0.1-0.3-0.3-0.4-0.4c-0.1-0.2-0.1-0.4-0.1-0.6V156c0-0.3,0.1-0.5,0.2-0.7s0.3-0.4,0.6-0.5c0.2-0.1,0.5-0.2,0.8-0.2
				c0.2,0,0.3,0,0.5,0.1s0.3,0.1,0.4,0.2c0.1-0.2,0.2-0.4,0.3-0.4c0.1-0.1,0.2-0.1,0.2-0.1c0.1,0,0.2,0,0.3,0.1
				c0.1,0.1,0.1,0.1,0.1,0.2c0,0,0,0.1,0,0.1c0,0-0.1,0.1-0.1,0.1c-0.1,0-0.1,0.1-0.2,0.1c-0.1,0-0.1,0.1-0.2,0.2
				c0.1,0.1,0.2,0.2,0.2,0.4c0,0.1,0.1,0.3,0.1,0.4v0.2c0,0.3-0.1,0.5-0.2,0.7c-0.1,0.2-0.3,0.4-0.6,0.5s-0.5,0.2-0.8,0.2
				c-0.2,0-0.4,0-0.5-0.1c0,0,0,0-0.1,0.1c0,0,0,0.1,0,0.1c0,0.1,0.1,0.2,0.2,0.2c0.1,0,0.3,0.1,0.4,0.1c0.2,0,0.4,0,0.6,0.1
				c0.2,0,0.4,0.1,0.6,0.2c0.2,0.1,0.3,0.2,0.4,0.3s0.2,0.3,0.2,0.6c0,0.3-0.1,0.5-0.3,0.7c-0.2,0.2-0.4,0.3-0.6,0.4
				C83.8,160.3,83.5,160.3,83.2,160.3z M83.2,159.6c0.2,0,0.4-0.1,0.5-0.2c0.1-0.1,0.2-0.2,0.2-0.4c0-0.1,0-0.2-0.1-0.3
				c-0.1-0.1-0.2-0.1-0.3-0.2c-0.1,0-0.2-0.1-0.4-0.1c-0.1,0-0.3,0-0.4-0.1c-0.1,0.1-0.2,0.1-0.3,0.2s-0.1,0.2-0.1,0.3
				c0,0.2,0.1,0.3,0.2,0.4C82.8,159.6,83,159.6,83.2,159.6z M83.1,156.9c0.2,0,0.3-0.1,0.4-0.2c0.1-0.1,0.2-0.3,0.2-0.5V156
				c0-0.2,0-0.4-0.1-0.5c-0.1-0.1-0.2-0.2-0.4-0.2c-0.2,0-0.3,0.1-0.4,0.2c-0.1,0.1-0.1,0.3-0.1,0.5v0.2c0,0.2,0,0.4,0.1,0.5
				S83,156.9,83.1,156.9z"/>
			<path class="st6" d="M87,158.6c-0.3,0-0.6-0.1-0.9-0.2c-0.3-0.2-0.5-0.4-0.6-0.6c-0.2-0.3-0.2-0.5-0.2-0.8v-0.7
				c0-0.3,0.1-0.6,0.2-0.8c0.2-0.2,0.4-0.4,0.6-0.6s0.6-0.2,0.9-0.2s0.6,0.1,0.9,0.2c0.3,0.1,0.5,0.3,0.6,0.6s0.2,0.5,0.2,0.8v0.7
				c0,0.3-0.1,0.5-0.2,0.8c-0.2,0.3-0.4,0.5-0.6,0.6C87.6,158.5,87.3,158.6,87,158.6z M87,157.7c0.1,0,0.2,0,0.4-0.1
				s0.2-0.2,0.3-0.3c0.1-0.1,0.1-0.2,0.1-0.4v-0.7c0-0.1,0-0.2-0.1-0.3c-0.1-0.1-0.1-0.2-0.3-0.3c-0.1-0.1-0.2-0.1-0.4-0.1
				c-0.1,0-0.2,0-0.4,0.1c-0.1,0.1-0.2,0.2-0.3,0.3c-0.1,0.1-0.1,0.2-0.1,0.3v0.7c0,0.1,0,0.2,0.1,0.4c0.1,0.1,0.1,0.2,0.3,0.3
				C86.8,157.7,86.9,157.7,87,157.7z"/>
			<path class="st6" d="M90.7,158.6c-0.3,0-0.5,0-0.7-0.1c-0.2-0.1-0.4-0.2-0.5-0.3s-0.2-0.2-0.2-0.3c0-0.1,0-0.1,0-0.2
				s0.1-0.1,0.1-0.2c0.1-0.1,0.1-0.1,0.2-0.1c0.1,0,0.2,0,0.2,0.1c0.1,0.1,0.2,0.1,0.3,0.2s0.3,0.1,0.5,0.1c0.2,0,0.4,0,0.5-0.1
				c0.1-0.1,0.1-0.2,0.1-0.2c0-0.1,0-0.2-0.1-0.3c-0.1-0.1-0.2-0.1-0.4-0.2c-0.1,0-0.3-0.1-0.5-0.1c-0.2,0-0.3-0.1-0.5-0.2
				c-0.1-0.1-0.3-0.2-0.4-0.3s-0.1-0.3-0.1-0.5c0-0.2,0-0.4,0.1-0.6c0.1-0.2,0.2-0.3,0.4-0.5s0.5-0.2,0.8-0.2c0.2,0,0.4,0,0.6,0.1
				c0.2,0,0.4,0.1,0.5,0.2c0.1,0.1,0.2,0.2,0.2,0.3c0,0,0,0.1,0,0.2c0,0.1-0.1,0.1-0.1,0.2c-0.1,0.1-0.1,0.1-0.2,0.1
				c-0.1,0-0.1,0-0.2-0.1c-0.1,0-0.2-0.1-0.3-0.1c-0.1,0-0.2-0.1-0.4-0.1c-0.1,0-0.2,0-0.3,0.1c-0.1,0-0.1,0.1-0.2,0.1
				c0,0.1-0.1,0.1-0.1,0.2c0,0.1,0,0.2,0.1,0.2c0.1,0.1,0.2,0.1,0.4,0.1c0.1,0,0.3,0.1,0.5,0.1c0.2,0,0.3,0.1,0.5,0.2
				c0.1,0.1,0.3,0.2,0.4,0.3c0.1,0.1,0.1,0.3,0.1,0.6c0,0.4-0.1,0.6-0.4,0.9C91.5,158.5,91.1,158.6,90.7,158.6z"/>
			<path class="st6" d="M93.1,158.6c-0.2,0-0.3-0.1-0.4-0.2c-0.1-0.1-0.2-0.2-0.2-0.4c0-0.1,0.1-0.3,0.2-0.4
				c0.1-0.1,0.2-0.2,0.4-0.2c0.1,0,0.3,0.1,0.4,0.2c0.1,0.1,0.2,0.2,0.2,0.4c0,0.1-0.1,0.3-0.2,0.4
				C93.4,158.5,93.3,158.6,93.1,158.6z"/>
			<path class="st6" d="M95.9,158.6c-0.3,0-0.6-0.1-0.9-0.2s-0.5-0.4-0.6-0.6c-0.2-0.3-0.2-0.5-0.2-0.8v-0.7c0-0.3,0.1-0.6,0.2-0.8
				c0.2-0.2,0.4-0.4,0.6-0.6c0.3-0.1,0.6-0.2,0.9-0.2c0.3,0,0.6,0.1,0.9,0.2c0.3,0.1,0.5,0.3,0.6,0.6c0.2,0.2,0.2,0.5,0.2,0.8v0.7
				c0,0.3-0.1,0.5-0.2,0.8c-0.2,0.3-0.4,0.5-0.6,0.6C96.5,158.5,96.2,158.6,95.9,158.6z M95.9,157.7c0.1,0,0.2,0,0.4-0.1
				s0.2-0.2,0.3-0.3c0.1-0.1,0.1-0.2,0.1-0.4v-0.7c0-0.1,0-0.2-0.1-0.3c-0.1-0.1-0.1-0.2-0.3-0.3c-0.1-0.1-0.2-0.1-0.4-0.1
				c-0.1,0-0.2,0-0.4,0.1s-0.2,0.2-0.3,0.3s-0.1,0.2-0.1,0.3v0.7c0,0.1,0,0.2,0.1,0.4c0.1,0.1,0.1,0.2,0.3,0.3
				S95.8,157.7,95.9,157.7z"/>
			<path class="st6" d="M98.8,158.5c-0.1,0-0.3,0-0.4-0.1s-0.1-0.1-0.1-0.2V155c0-0.1,0-0.2,0.1-0.2s0.2-0.1,0.4-0.1
				c0.1,0,0.2,0,0.3,0.1s0.1,0.1,0.1,0.2v0.3c0.1-0.1,0.1-0.2,0.2-0.3c0.1-0.1,0.2-0.2,0.3-0.3s0.3-0.1,0.4-0.1h0.2
				c0.1,0,0.2,0,0.3,0.1c0.1,0.1,0.1,0.2,0.1,0.3c0,0.1,0,0.2-0.1,0.3c-0.1,0.1-0.2,0.1-0.3,0.1h-0.2c-0.1,0-0.3,0-0.4,0.1
				s-0.3,0.2-0.3,0.4c-0.1,0.2-0.1,0.4-0.1,0.6v1.4c0,0.1-0.1,0.2-0.2,0.2C99,158.5,98.9,158.5,98.8,158.5z"/>
		</g>
	</g>
	<g>
		<g>
			<path class="st6" d="M102.7,160.3c-0.3,0-0.6,0-0.9-0.1c-0.3-0.1-0.5-0.2-0.6-0.4c-0.2-0.2-0.2-0.4-0.2-0.6
				c0-0.2,0.1-0.4,0.2-0.5c0.1-0.1,0.3-0.3,0.4-0.3c-0.1,0-0.2-0.1-0.2-0.2s-0.1-0.2-0.1-0.3c0-0.1,0-0.3,0.1-0.4
				c0.1-0.1,0.2-0.2,0.3-0.3c-0.2-0.1-0.3-0.3-0.4-0.4c-0.1-0.2-0.1-0.4-0.1-0.6V156c0-0.3,0.1-0.5,0.2-0.7c0.1-0.2,0.3-0.4,0.6-0.5
				c0.2-0.1,0.5-0.2,0.8-0.2c0.2,0,0.3,0,0.5,0.1c0.2,0,0.3,0.1,0.4,0.2c0.1-0.2,0.2-0.4,0.3-0.4c0.1-0.1,0.2-0.1,0.2-0.1
				c0.1,0,0.2,0,0.3,0.1c0.1,0.1,0.1,0.1,0.1,0.2c0,0,0,0.1,0,0.1c0,0-0.1,0.1-0.1,0.1c-0.1,0-0.1,0.1-0.2,0.1
				c-0.1,0-0.1,0.1-0.2,0.2c0.1,0.1,0.2,0.2,0.2,0.4c0,0.1,0.1,0.3,0.1,0.4v0.2c0,0.3-0.1,0.5-0.2,0.7c-0.1,0.2-0.3,0.4-0.6,0.5
				s-0.5,0.2-0.8,0.2c-0.2,0-0.4,0-0.5-0.1c0,0,0,0-0.1,0.1c0,0,0,0.1,0,0.1c0,0.1,0.1,0.2,0.2,0.2s0.3,0.1,0.4,0.1
				c0.2,0,0.4,0,0.6,0.1c0.2,0,0.4,0.1,0.6,0.2c0.2,0.1,0.3,0.2,0.4,0.3s0.2,0.3,0.2,0.6c0,0.3-0.1,0.5-0.3,0.7
				c-0.2,0.2-0.4,0.3-0.6,0.4C103.3,160.3,103,160.3,102.7,160.3z M102.7,159.6c0.2,0,0.4-0.1,0.5-0.2c0.1-0.1,0.2-0.2,0.2-0.4
				c0-0.1,0-0.2-0.1-0.3c-0.1-0.1-0.2-0.1-0.3-0.2c-0.1,0-0.2-0.1-0.4-0.1c-0.1,0-0.3,0-0.4-0.1c-0.1,0.1-0.2,0.1-0.3,0.2
				s-0.1,0.2-0.1,0.3c0,0.2,0.1,0.3,0.2,0.4C102.3,159.6,102.5,159.6,102.7,159.6z M102.7,156.9c0.2,0,0.3-0.1,0.4-0.2
				c0.1-0.1,0.2-0.3,0.2-0.5V156c0-0.2,0-0.4-0.1-0.5c-0.1-0.1-0.2-0.2-0.4-0.2c-0.2,0-0.3,0.1-0.4,0.2c-0.1,0.1-0.1,0.3-0.1,0.5
				v0.2c0,0.2,0,0.4,0.1,0.5S102.5,156.9,102.7,156.9z"/>
		</g>
	</g>
	<path class="st7" d="M111.7,56 M90.5,76.8"/>
	<path class="st8" d="M71.4,95.4l45.2-44.7l13.3,12.6 M50.7,64.4l15.4-14l24.6,25.1 M71.7,56l19.9-21.1L111.7,56 M90.5,100.3
		c21.8,0,39.5-17.7,39.5-39.5c0-21.8-17.7-39.5-39.5-39.5S50.9,39,50.9,60.8C50.9,82.6,68.6,100.3,90.5,100.3L90.5,100.3z"/>
</g>
</svg>
