<?xml version="1.0" encoding="UTF-8" standalone="no"?>
<!-- Generator: Adobe Illustrator 27.0.0, SVG Export Plug-In . SVG Version: 6.00 Build 0)  -->

<svg
   version="1.1"
   id="Layer_1"
   x="0px"
   y="0px"
   viewBox="0 0 94.793178 94.112955"
   xml:space="preserve"
   sodipodi:docname="cugos_sticker_round.svg"
   width="94.793182"
   height="94.112953"
   inkscape:version="1.2.2 (732a01da63, 2022-12-09)"
   xmlns:inkscape="http://www.inkscape.org/namespaces/inkscape"
   xmlns:sodipodi="http://sodipodi.sourceforge.net/DTD/sodipodi-0.dtd"
   xmlns="http://www.w3.org/2000/svg"
   xmlns:svg="http://www.w3.org/2000/svg"><defs
   id="defs150" /><sodipodi:namedview
   id="namedview148"
   pagecolor="#ffffff"
   bordercolor="#000000"
   borderopacity="0.25"
   inkscape:showpageshadow="2"
   inkscape:pageopacity="0.0"
   inkscape:pagecheckerboard="0"
   inkscape:deskcolor="#d1d1d1"
   showgrid="false"
   inkscape:zoom="5.7696629"
   inkscape:cx="74.441091"
   inkscape:cy="50.002921"
   inkscape:window-width="1920"
   inkscape:window-height="991"
   inkscape:window-x="2391"
   inkscape:window-y="-9"
   inkscape:window-maximized="1"
   inkscape:current-layer="Layer_1" />
<style
   type="text/css"
   id="style9">
	.st0{fill:#2F5565;}
	.st1{fill:none;stroke:#FFFFFF;stroke-width:4;}
	.st2{fill:#C1CC53;}
	.st3{fill:#59C8F3;}
	.st4{fill:#868D38;}
	.st5{fill:#62682D;}
	.st6{fill:#FFFFFF;}
	.st7{fill:none;stroke:#194A9C;stroke-width:3.5568;}
	.st8{fill:none;stroke:#FFFFFF;stroke-width:3.5568;}
</style>
<circle
   style="fill:#2f5565;fill-opacity:1;stroke-width:0.899877"
   id="path464"
   cx="47.396591"
   cy="47.056477"
   r="45.492615" /><g
   id="g145"
   transform="translate(-43.053409,-13.743523)">
	
	
	<path
   class="st2"
   d="m 70.8,95.1 45.7,-44.6 13.3,11.8 c 0,0 -1.1,14.4 -7.8,22.4 -6.7,8 -16.2,14 -23.9,14.8 -7.6,0.7 -15.1,1.4 -19.4,0 -4.4,-1.5 -7.9,-4.4 -7.9,-4.4 z"
   id="path15" />
	<path
   class="st3"
   d="m 50.6,63.8 c 0,-0.7 -0.4,-13.1 2.9,-19.1 3.2,-6 15.5,-17.1 19.8,-19.4 4.3,-2.3 13.7,-3.6 17,-3.6 3.2,0 18.1,3.2 21.5,5.4 3.4,2.2 10.9,9 12.7,13.3 1.8,4.3 5.4,13.2 5.4,16.8 0,3.6 0,8.1 0,6.6 0,-1.5 -13,-13.3 -13,-13.3 L 111.7,54.8 91.7,34.6 71.5,56 65.7,50.5 Z"
   id="path17" />
	<path
   class="st4"
   d="M 49.5,64.1 65.7,50.5 90.5,75.4 70.8,94.9 c 0,0 -10.8,-7.5 -13.3,-11.9 -2.6,-4.4 -8,-18.9 -8,-18.9 z"
   id="path19" />
	<path
   class="st5"
   d="m 70.8,56 c 0,-1.2 20.9,-21 20.9,-21 l 20,21 -21.2,19.4 z"
   id="path21" />
	
	
	
	
	
	<path
   class="st7"
   d="M 111.7,56 M 90.5,76.8"
   id="path141" />
	<path
   class="st8"
   d="m 71.4,95.4 45.2,-44.7 13.3,12.6 m -79.2,1.1 15.4,-14 24.6,25.1 M 71.7,56 91.6,34.9 111.7,56 M 90.5,100.3 C 112.3,100.3 130,82.6 130,60.8 130,39 112.3,21.3 90.5,21.3 68.7,21.3 50.9,39 50.9,60.8 c 0,21.8 17.7,39.5 39.6,39.5 z"
   id="path143" />
</g>
</svg>
