<?xml version="1.0" encoding="utf-8"?>
<!-- Generator: Adobe Illustrator 15.0.0, SVG Export Plug-In  -->
<!DOCTYPE svg PUBLIC "-//W3C//DTD SVG 1.1//EN" "http://www.w3.org/Graphics/SVG/1.1/DTD/svg11.dtd" [
	<!ENTITY ns_flows "http://ns.adobe.com/Flows/1.0/">
	<!ENTITY st0 "fill:#010101;">
]>
<svg version="1.1"
	 xmlns="http://www.w3.org/2000/svg" xmlns:xlink="http://www.w3.org/1999/xlink" xmlns:a="http://ns.adobe.com/AdobeSVGViewerExtensions/3.0/"
	 x="0px" y="0px" width="261px" height="36px" viewBox="0 0 261 36" style="overflow:visible;enable-background:new 0 0 261 36;"
	 xml:space="preserve">
<defs>
</defs>
<path style="&st0;" d="M27.177,27.045h-6.719L18.5,21.289H8.633l-1.914,5.756H0L9.441,0h8.463L27.177,27.045z M13.609,5.322
	l-3.53,10.602h6.932L13.609,5.322z"/>
<path style="&st0;" d="M40.524,27.045V15.146c0-2.424-1.063-3.202-2.808-3.202c-1.446,0-2.722,0.735-3.573,1.514v13.588h-6.55V7.27
	l6.55-0.822c0,0,0,2.986,0,3.289c1.745-2.033,4.083-3.461,6.635-3.461c3.956,0,6.294,2.64,6.294,6.924v13.847H40.524z"/>
<path style="&st0;" d="M55.93,27.045V0h19.437v5.539H62.564v5.193h10.293v5.496H62.564v5.278h12.802v5.539H55.93z"/>
<path style="&st0;" d="M90.465,27.087h-7.399L75.75,6.924h7.017l4.083,13.803l4.04-13.803h7.06L90.465,27.087z"/>
<path style="&st0;" d="M103.641,18.304c0.256,2.725,2.297,4.24,5.359,4.24c2.042,0,4.338-0.605,6.339-1.773l0.935,5.235
	c-2,1.039-4.808,1.645-7.699,1.645c-6.677,0-11.356-3.808-11.356-10.516c0-6.577,4.423-10.86,10.717-10.86
	c5.616,0,8.677,3.419,8.677,8.438c0,1.082-0.169,2.51-0.425,3.375l-12.547,0.131V18.304z M110.531,15.059c0-0.087,0-0.217,0-0.304
	c0-2.379-0.978-3.98-3.021-3.98c-2.253,0-3.614,2.076-3.827,4.328L110.531,15.059z"/>
<path style="&st0;" d="M131.713,27.045V15.146c0-2.424-1.062-3.202-2.808-3.202c-1.444,0-2.721,0.735-3.572,1.514v13.588h-6.549
	V7.27l6.549-0.822c0,0,0,2.986,0,3.289c1.744-2.033,4.083-3.461,6.635-3.461c3.956,0,6.295,2.64,6.295,6.924v13.847H131.713z"/>
<path style="&st0;" d="M187.705,27.045h-6.72l-1.958-5.756h-9.865l-1.913,5.756h-6.721L169.971,0h8.462L187.705,27.045z
	 M174.138,5.322l-3.53,10.602h6.933L174.138,5.322z"/>
<path style="&st0;" d="M200.136,6.274c4.892,0,8.463,4.068,8.463,10.471c0,6.664-4.55,10.905-9.909,10.905
	c-1.318,0-2.849-0.26-4.082-0.649V36h-6.551V7.27l6.551-0.822c0,0,0,2.467,0,2.554C195.841,7.703,197.626,6.274,200.136,6.274z
	 M194.607,21.853c0.764,0.519,1.786,0.821,3.019,0.821c2.806,0,4.424-2.25,4.424-5.583c0-3.46-1.446-5.494-4.127-5.494
	c-1.444,0-2.423,0.562-3.315,1.385C194.607,12.938,194.607,21.853,194.607,21.853z"/>
<path style="&st0;" d="M221.019,14.582c0-2.119-1.063-3.071-3.487-3.071c-2.042,0-4.763,1.038-6.72,2.033l-1.361-4.89
	c2.084-1.125,5.358-2.38,9.102-2.38c6.849,0,9.019,3.116,9.019,8.74v6.361c0,2.467,0.636,3.721,2.125,5.279l-6.466,1.039
	c-1.148-0.564-1.912-1.948-2.082-3.073h-0.129c-1.403,1.688-3.316,3.073-5.912,3.073c-3.528,0-5.782-2.511-5.782-5.539
	c0-3.895,2.806-6.923,11.694-7.141V14.582z M221.019,17.828c-4.041,0.605-5.529,1.558-5.529,3.332c0,1.297,1.021,2.077,2.511,2.077
	c1.275,0,2.339-0.521,3.019-1.212V17.828z"/>
<path style="&st0;" d="M237.395,27.045h-6.551V7.27l6.551-0.822v3.375c1.105-2.164,2.551-3.462,4.764-3.548
	c1.19,0,2.511,0.26,3.572,0.866l-1.319,5.971c-0.766-0.39-1.616-0.606-2.51-0.606c-1.615,0-3.316,0.909-4.507,3.202V27.045z"/>
<path style="&st0;" d="M256.193,27.694c-4.892,0-7.527-2.035-7.273-7.313l0.299-7.659l-2.978-0.519l0.908-4.501l2.197-0.734
	l0.084-4.587h6.337l-0.043,4.803h4.935l-0.129,5.236h-5.272l-0.212,7.226c-0.086,1.861,0.978,2.641,2.594,2.641
	c0.809,0,1.7-0.217,2.594-0.52L261,26.957C259.47,27.434,258.193,27.694,256.193,27.694z"/>
<path style="&st0;" d="M149.454,27.694c-4.891,0-7.528-2.035-7.272-7.313l0.298-7.659l-2.978-0.519l0.909-4.501l2.196-0.734
	l0.085-4.587h6.338l-0.043,4.803h4.932l-0.127,5.236h-5.272l-0.214,7.226c-0.085,1.861,0.978,2.641,2.596,2.641
	c0.808,0,1.699-0.217,2.594-0.52l0.765,5.191C152.729,27.434,151.453,27.694,149.454,27.694z"/>
</svg>
