<?xml version="1.0" encoding="UTF-8" standalone="no"?>
<svg
   xmlns:dc="http://purl.org/dc/elements/1.1/"
   xmlns:cc="http://creativecommons.org/ns#"
   xmlns:rdf="http://www.w3.org/1999/02/22-rdf-syntax-ns#"
   xmlns:svg="http://www.w3.org/2000/svg"
   xmlns="http://www.w3.org/2000/svg"
   xmlns:sodipodi="http://sodipodi.sourceforge.net/DTD/sodipodi-0.dtd"
   xmlns:inkscape="http://www.inkscape.org/namespaces/inkscape"
   version="1.1"
   id="Layer_1"
   x="0px"
   y="0px"
   width="100px"
   height="100px"
   viewBox="0 0 100 100"
   enable-background="new 0 0 100 100"
   xml:space="preserve"
   inkscape:version="0.48.2 r9819"
   sodipodi:docname="noun_project_7781.svg"><metadata
   id="metadata9"><rdf:RDF><cc:Work
       rdf:about=""><dc:format>image/svg+xml</dc:format><dc:type
         rdf:resource="http://purl.org/dc/dcmitype/StillImage" /><dc:title></dc:title></cc:Work></rdf:RDF></metadata><defs
   id="defs7" /><sodipodi:namedview
   pagecolor="#ffffff"
   bordercolor="#666666"
   borderopacity="1"
   objecttolerance="10"
   gridtolerance="10"
   guidetolerance="10"
   inkscape:pageopacity="0"
   inkscape:pageshadow="2"
   inkscape:window-width="1425"
   inkscape:window-height="766"
   id="namedview5"
   showgrid="false"
   inkscape:zoom="2.36"
   inkscape:cx="50"
   inkscape:cy="50"
   inkscape:window-x="0"
   inkscape:window-y="24"
   inkscape:window-maximized="0"
   inkscape:current-layer="Layer_1" />
<path
   d="M49.999,4.645C24.991,4.645,4.646,24.991,4.646,50c0,25.008,20.346,45.356,45.354,45.356  c25.009,0,45.355-20.348,45.355-45.356C95.354,24.991,75.008,4.645,49.999,4.645z M49.999,8.583  c22.196,0,40.365,17.551,41.369,39.503L79.581,36.3l-6.342,6.342L50.701,18.313l-22.314,24.02l-6.135-6.134L8.587,49.864  C8.661,27.089,27.208,8.583,49.999,8.583z M70.452,45.428L50.967,64.914L31.173,45.12l19.524-21.016L70.452,45.428z M8.91,55.11  l13.342-13.342l25.93,25.931L29.764,86.117C18.548,79.809,10.558,68.43,8.91,55.11z M49.999,91.416  c-5.87,0-11.454-1.234-16.519-3.445l46.101-46.102l11.674,11.674C89.449,74.727,71.642,91.416,49.999,91.416z"
   id="path3" />
</svg>