<?xml version="1.0" encoding="utf-8"?>
<!-- Generator: Adobe Illustrator 15.0.0, SVG Export Plug-In  -->
<!DOCTYPE svg PUBLIC "-//W3C//DTD SVG 1.1//EN" "http://www.w3.org/Graphics/SVG/1.1/DTD/svg11.dtd" [
	<!ENTITY ns_flows "http://ns.adobe.com/Flows/1.0/">
	<!ENTITY st0 "fill:#FFFFFF;">
]>
<svg version="1.1"
	 xmlns="http://www.w3.org/2000/svg" xmlns:xlink="http://www.w3.org/1999/xlink" xmlns:a="http://ns.adobe.com/AdobeSVGViewerExtensions/3.0/"
	 x="0px" y="0px" width="56px" height="60px" viewBox="0 0 56 60" style="overflow:visible;enable-background:new 0 0 56 60;"
	 xml:space="preserve">
<defs>
</defs>
<path style="&st0;" d="M39.531,48.092c0.002-0.003,1.303-0.163,2.523-0.162c0.896-1.527,3.011-5.348,5.052-10.229
	c2.466-5.901-1.031-13.194-1.381-15.905c-0.353-2.714-0.398-5.423-0.398-5.423l-0.977-0.781c0,0-6.841,10.166-7.646,16.288
	C35.903,38.007,39.531,48.092,39.531,48.092z"/>
<path style="&st0;" d="M31.612,40.872c-4.434-2.708-9.493-5.955-12.863-11.992c-4.055-7.269-1.485-17.113-1.614-20.657
	c-0.126-3.547-0.643-7.027-0.643-7.027L17.576,0c0,0,10.931,11.649,13.264,19.338C33.17,27.026,29.321,34.85,31.612,40.872z"/>
<path style="&st0;" d="M35.163,48.721c-3.931,0.906-10.674,4.716-17.45,2.152C10.938,48.312,0,38.237,0,38.237L0.046,36.6
	c0,0,8.92-0.488,14.51,0.872C20.726,38.977,27,45.611,35.163,48.721z"/>
<path style="&st0;" d="M25.477,60c0,0,3.799-1.113,7.084-0.994c3.415,0.123,7.781,1.631,12.562,0.49
	c8.549-2.041,10.113-7.122,10.876-8.229c-6.246,2.543-14.396-0.812-20.861,1.199C29.486,54.225,25.477,60,25.477,60z"/>
</svg>
