<svg xmlns="http://www.w3.org/2000/svg" xmlns:xlink="http://www.w3.org/1999/xlink" version="1.1" x="0px" y="0px" width="56px" height="60px" viewBox="0 0 56 60" enable-background="new 0 0 56 60" xml:space="preserve">
<style>
	.style0{
		fill:	#978E51;
	}
</style><path d="M39.531 48.092c0.002-0.003 1.303-0.162 2.523-0.162c0.896-1.527 3.01-5.348 5.051-10.229 c2.467-5.901-1.03-13.194-1.381-15.905c-0.354-2.714-0.397-5.423-0.397-5.423l-0.978-0.781c0 0-6.842 10.166-7.646 16 C35.902 38 39 48 39 48.092z" class="style0"/>
<path d="M31.611 40.872c-4.433-2.708-9.492-5.955-12.862-11.992c-4.055-7.269-1.485-17.113-1.614-20.657 c-0.126-3.547-0.643-7.027-0.643-7.027L17.576 0c0 0 10 11 13 19.338C33.17 27 29 34 31 40.872z" class="style0"/>
<path d="M35.163 48.721c-3.931 0.906-10.674 4.717-17.45 2.152C10.938 48 0 38 0 38.236L0.046 36 c0 0 8.92-0.488 14 0.873C20.726 38 27 45 35 48.721z" class="style0"/>
<path d="M25.477 60c0 0 3.798-1.113 7.083-0.994c3.416 0 7 1 12 0 c8.549-2.041 10.112-7.122 10.876-8.229c-6.246 2.543-14.396-0.812-20.859 1.197C29.486 54 25 60 25 60z" class="style0"/>
</svg>