<?xml version="1.0" encoding="UTF-8" standalone="no"?>
<!-- Created with Inkscape (http://www.inkscape.org/) -->

<svg
   xmlns:dc="http://purl.org/dc/elements/1.1/"
   xmlns:cc="http://creativecommons.org/ns#"
   xmlns:rdf="http://www.w3.org/1999/02/22-rdf-syntax-ns#"
   xmlns:svg="http://www.w3.org/2000/svg"
   xmlns="http://www.w3.org/2000/svg"
   xmlns:sodipodi="http://sodipodi.sourceforge.net/DTD/sodipodi-0.dtd"
   xmlns:inkscape="http://www.inkscape.org/namespaces/inkscape"
   width="50"
   height="50"
   id="svg2"
   version="1.1"
   inkscape:version="0.48.3.1 r9886"
   sodipodi:docname="mustachioed_man.svg">
  <defs
     id="defs4" />
  <sodipodi:namedview
     id="base"
     pagecolor="#ffffff"
     bordercolor="#666600"
     borderopacity="1"
     inkscape:pageopacity="0.0"
     inkscape:pageshadow="2"
     inkscape:zoom="5.6"
     inkscape:cx="4.871128"
     inkscape:cy="14.24214"
     inkscape:document-units="px"
     inkscape:current-layer="g3485"
     showgrid="false"
     showborder="true"
     inkscape:window-width="1125"
     inkscape:window-height="593"
     inkscape:window-x="235"
     inkscape:window-y="116"
     inkscape:window-maximized="0" />
  <metadata
     id="metadata7">
    <rdf:RDF>
      <cc:Work
         rdf:about="">
        <dc:format>image/svg+xml</dc:format>
        <dc:type
           rdf:resource="http://purl.org/dc/dcmitype/StillImage" />
        <dc:title />
      </cc:Work>
    </rdf:RDF>
  </metadata>
  <g
     inkscape:label="mustache"
     inkscape:groupmode="layer"
     id="layer1"
     transform="translate(0,-1002.3622)">
    <g
       id="g3319"
       transform="matrix(0.39631078,0,0,0.39631078,5.8070242,1031.6497)">
      <path
         id="path3321"
         d="m 93.301,3.903 c -4.633,0.479 -5.887,6.338 -6.108,7.648 0.528,-1.366 5.718,-3.849 6.726,-0.991 1.081,3.058 -0.853,7.377 -7.869,6.837 -7.018,-0.54 -9.447,-6.836 -18.083,-13.674 -8.637,-6.837 -18.173,0 -18.173,0 0,0 -9.4,-6.837 -18.037,0 C 23.12,10.56 20.758,16.857 13.743,17.397 6.725,17.937 4.825,13.618 5.904,10.56 6.913,7.701 12.121,10.186 12.65,11.552 12.428,10.246 11.183,4.383 6.548,3.904 1.329,3.363 0.13,9.255 0.13,12.134 c 0,2.878 0.686,15.157 21.736,15.157 21.05,0 27.927,-13.303 27.927,-13.303 0,0 7.009,13.303 28.061,13.303 21.05,0 21.868,-12.279 21.868,-15.157 0,-2.879 -1.204,-8.771 -6.421,-8.231 z"
         inkscape:connector-curvature="0" />
    </g>
  </g>
  <g
     inkscape:groupmode="layer"
     id="layer3"
     inkscape:label="glasses">
    <path
       id="path3391"
       d="m 47.947762,14.396183 c 0,0 0.155756,-3.632577 0.02252,-3.767223 -0.132772,-0.134174 -12.54959,0.268351 -12.54959,0.268351 L 25.177887,11.031954 14.934611,10.897781 c 0,0 -12.415411,-0.402525 -12.5491165,-0.268351 -0.1332374,0.134644 0.02346,3.767221 0.02346,3.767221 0,0 -0.2148669,-0.286177 0.6450722,1.180834 0.8585326,1.466074 0.9303113,8.373271 4.7599295,9.554106 3.8291468,1.182242 8.0519068,1.25402 10.6992828,-0.178743 0,0 3.435538,-1.968527 4.723805,-6.763172 0,0 0.353734,-2.298333 1.940846,-2.325075 1.587112,0.02675 1.942722,2.325075 1.942722,2.325075 1.2878,4.794176 4.723807,6.762703 4.723807,6.762703 2.647375,1.432763 6.870605,1.360515 10.698815,0.178743 3.830555,-1.179896 3.900927,-8.086625 4.760866,-9.554106 0.856657,-1.467011 0.643665,-1.180833 0.643665,-1.180833 z M 17.975597,23.878978 C 16.794764,24.594422 14.75446,25.166776 9.995,24.449925 5.2355399,23.736358 5.1642305,17.937746 5.6291515,14.968068 6.095011,11.997452 13.037394,12.391064 13.037394,12.391064 c 7.765731,0.180621 8.087093,2.612659 8.087093,2.612659 1.110463,4.580715 -1.967116,8.16028 -3.14889,8.875255 z m 22.384239,0.570947 c -4.75946,0.716851 -6.800233,0.144965 -7.980128,-0.570947 -1.180834,-0.714975 -4.258884,-4.29454 -3.14889,-8.874786 0,0 0.32183,-2.432977 8.085685,-2.612189 0,0 6.94426,-0.393613 7.409651,2.577004 0.463984,2.969677 0.393611,8.767351 -4.366318,9.480918 z m 5.618462,-12.877048 c 0,0 -5.730587,0.160917 -11.186255,0.238325 -4.69378,0.06663 -9.188173,0.06052 -9.614156,0.04785 -0.426452,0.01267 -4.918969,0.01971 -9.613217,-0.04785 C 10.108062,11.732386 4.3765382,11.572877 4.3765382,11.572877 4.091299,11.031954 4.5200967,11.031954 4.5200967,11.031954 c 1.0156955,0.166547 19.8593083,0.334032 20.6577903,0.340599 0.799419,-0.0065 19.640688,-0.174521 20.657322,-0.341067 0,4.68e-4 0.428797,4.68e-4 0.143089,0.541391 z"
       inkscape:connector-curvature="0" />
    <path
       style="fill:#d40000"
       id="path3489"
       d="m 15.66645,15.869681 c 3.94651,-2.17855 2.304065,-1.417936 1.549557,-0.832275 -0.432145,0.335438 -0.84719,0.698437 -1.269467,1.046163 -0.937449,0.783793 -1.86184,1.58291 -2.7963,2.370214 -0.579508,0.517059 -1.120591,1.078638 -1.650804,1.64612 -0.39902,0.442753 -0.873119,0.807412 -1.329094,1.188186 0,0 -2.391482,0.967064 -2.391482,0.967064 l 0,0 c 0.452102,-0.385691 0.9457666,-0.726684 1.3531323,-1.161541 0.5298688,-0.597549 1.1130727,-1.15076 1.6907797,-1.700691 0.952325,-0.781726 1.888175,-1.583088 2.826342,-2.381706 0.289557,-0.245559 0.584453,-0.484837 0.871557,-0.73326 0.09871,-0.08541 0.466754,-0.42965 0.588259,-0.523461 0.802851,-0.619862 2.251629,-0.328386 2.625166,-1.538734 0,0 -2.067646,1.653921 -2.067646,1.653921 z"
       inkscape:connector-curvature="0" />
    <path
       style="fill:#d40000"
       id="path3491"
       d="m 7.4435467,15.800514 c 0.4242241,0.551571 0.9932002,0.994504 1.5599515,1.393315 0.6319373,0.448811 1.3166098,0.811243 2.0212928,1.130138 0.674076,0.229026 1.333591,0.495716 1.973332,0.807778 0.610124,0.3597 1.268955,0.60681 1.92994,0.85201 0.270822,0.104975 0.551322,0.173295 0.834547,0.23337 0,0 -2.130375,1.472759 -2.130375,1.472759 l 0,0 C 13.348732,21.614805 13.069097,21.530342 12.797786,21.417338 12.133329,21.163952 11.477658,20.894096 10.856101,20.545205 10.21693,20.23901 9.5525199,19.994686 8.8935799,19.735054 8.1845999,19.397457 7.4891284,19.03106 6.8609166,18.555346 6.2786133,18.129699 5.7121354,17.677019 5.1846147,17.18479 c 0,0 2.258932,-1.384276 2.258932,-1.384276 z"
       inkscape:connector-curvature="0" />
    <path
       style="fill:#d40000"
       id="path3493"
       d="m 42.588325,14.914295 c -1.171865,0.940824 -2.532234,1.619641 -3.851412,2.330989 -0.696867,0.386839 -1.806005,1.004761 1.318896,-0.760341 0.149519,-0.08446 -0.296841,0.172782 -0.443618,0.261917 -0.44854,0.272389 -0.893052,0.551476 -1.341965,0.823365 -1.20431,0.719601 -0.412697,0.249758 -2.923947,1.686706 -0.107448,0.06148 -0.431133,0.243549 -0.323905,0.181686 0.637976,-0.368064 1.27642,-0.735326 1.916168,-1.100302 0.178003,-0.101551 -0.351058,0.211567 -0.525078,0.319803 -0.306878,0.190286 -0.155396,0.097 -0.454395,0.279943 0,0 -2.419008,0.936918 -2.419008,0.936918 l 0,0 c 0.304159,-0.189883 0.148266,-0.09585 0.467951,-0.281658 0.972114,-0.631663 2.013705,-1.191836 3.007458,-1.763096 0.103111,-0.05927 0.415235,-0.232083 0.312793,-0.17166 -0.601999,0.355072 -1.207412,0.704327 -1.811589,1.055682 -0.134865,0.07843 0.269101,-0.157937 0.403651,-0.236906 1.589397,-0.953361 3.152726,-1.951018 4.790629,-2.823218 0.952229,-0.529257 0.749926,-0.419849 -1.424219,0.834331 -0.103528,0.05972 0.206932,-0.119727 0.308603,-0.182557 0.542637,-0.335339 -0.04595,0.02754 0.399357,-0.293522 0.04557,-0.03285 0.09731,-0.05615 0.145961,-0.08422 0,0 2.447669,-1.013857 2.447669,-1.013857 z"
       inkscape:connector-curvature="0" />
    <path
       style="fill:#d40000"
       id="path3495"
       d="m 32.996467,14.57442 c 0.384367,0.458702 0.825137,0.864032 1.267414,1.265278 0.759764,0.701029 1.655866,1.206143 2.5498,1.71149 0.998374,0.504474 1.934169,1.122948 2.933589,1.623814 0.576359,0.28758 1.181239,0.506171 1.778635,0.743716 0,0 -2.115887,1.41305 -2.115887,1.41305 l 0,0 c -0.58763,-0.257087 -1.185027,-0.491591 -1.759887,-0.77752 -0.995215,-0.501356 -1.910973,-1.146227 -2.901838,-1.658129 -0.921824,-0.513009 -1.874411,-0.990291 -2.663565,-1.703186 -0.459771,-0.399617 -0.884151,-0.834534 -1.338884,-1.239329 0,0 2.250623,-1.379184 2.250623,-1.379184 z"
       inkscape:connector-curvature="0" />
  </g>
  <g
     inkscape:groupmode="layer"
     id="layer4"
     inkscape:label="eyes" />
  <g
     inkscape:groupmode="layer"
     id="layer2"
     inkscape:label="nose">
    <g
       style="overflow:visible"
       id="g3485"
       transform="matrix(0.18771054,0,0,0.18771054,16.387476,14.988622)">
      <path
         id="path3477"
         d="M 46.494,81.628 9.635,77.418 C 7.513,77.188 5.968,76.358 5.397,75.138 4.822,73.918 5.168,72.196 6.343,70.415 L 48.48,3.977 C 49.26,2.796 48.933,1.205 47.752,0.424 46.568,-0.356 44.98,-0.028 44.201,1.153 L 2.062,67.59 c -2.182,3.311 -2.656,6.855 -1.306,9.729 1.352,2.874 4.384,4.768 8.321,5.198 l 36.861,4.208 c 1.406,0.153 2.672,-0.863 2.825,-2.271 0.154,-1.407 -0.863,-2.673 -2.269,-2.826 z M 39.16,65.672 c -4.764,-0.877 -9.587,0.157 -13.581,2.913 -1.166,0.802 -1.459,2.399 -0.656,3.564 0.804,1.166 2.399,1.459 3.567,0.656 2.865,-1.978 6.325,-2.72 9.746,-2.092 3.417,0.627 6.388,2.552 8.363,5.417 0.804,1.168 2.401,1.461 3.566,0.656 1.166,-0.804 1.459,-2.401 0.656,-3.566 -2.756,-3.991 -6.894,-6.672 -11.661,-7.548 z m 21.375,-8.453 c -0.805,-1.165 -2.4,-1.459 -3.564,-0.653 -1.167,0.803 -1.459,2.4 -0.654,3.566 l 0,0 c 1.977,2.863 2.718,6.324 2.091,9.743 -0.628,3.419 -2.551,6.388 -5.418,8.365 -1.165,0.804 -1.457,2.399 -0.655,3.565 0.805,1.167 2.4,1.459 3.566,0.655 3.992,-2.754 6.674,-6.896 7.55,-11.661 0.874,-4.765 -0.161,-9.586 -2.916,-13.58 z"
         inkscape:connector-curvature="0"
         style="fill:#000000" />
    </g>
  </g>
</svg>
